<svg width="55" height="60" viewBox="0 0 55 60" fill="none" xmlns="http://www.w3.org/2000/svg">
<path d="M55.0001 20.6433C52.2068 21.1476 52.0498 21.4009 52.0498 24.6139V29.0161C52.0498 30.8571 52.0804 32.5528 52.3638 33.8873C49.3829 34.6823 45.3662 35.9442 41.4453 35.9442C30.7776 35.9442 23.623 28.6901 23.623 18.1879C23.623 6.06263 32.5332 0 42.0732 0C46.1531 0 49.9496 1.19139 51.5482 1.58778C51.6746 3.42881 51.8928 6.35112 52.27 10.1059L50.8896 10.467C49.76 3.89788 46.0573 1.94894 41.3515 1.94894C34.1663 1.94894 28.8324 7.86843 28.8324 17.503C28.8324 25.1182 32.8491 33.9974 42.0426 33.9974C43.58 33.9974 45.0867 33.6363 46.0899 33.0593C47.0931 32.4449 47.6579 31.6873 47.6579 29.6657V25.334C47.6579 21.4361 47.3765 21.075 42.6055 20.6411V19.126H55.0001V20.6411V20.6433Z" fill="white"/>
<path d="M34.4652 35.7832C33.0331 39.9057 31.5934 43.9864 30.2648 47.6729C30.2648 47.6729 17.738 15.5275 15.567 9.13232C14.3493 5.11332 14.4029 4.32053 20.1733 3.65107V0.973204H0V3.71493C4.76524 4.14216 6.08818 5.05386 8.47176 11.6935C12.9192 24.3605 19.643 43.5459 24.9922 59.8686H27.6916C30.3088 52.0068 33.1327 43.8278 35.8839 36.1708L34.4652 35.7854V35.7832Z" fill="white"/>
</svg>
