<svg width="554" height="593" viewBox="0 0 554 593" fill="none" xmlns="http://www.w3.org/2000/svg">
<g opacity="0.04">
<path d="M553.245 204.473C525.148 209.468 523.569 211.976 523.569 243.801V287.405C523.569 305.64 523.877 322.436 526.727 335.654C496.742 343.529 456.338 356.027 416.898 356.027C309.591 356.027 237.624 284.176 237.624 180.151C237.624 60.0505 327.251 0 423.214 0C464.254 0 502.442 11.8007 518.523 15.727C519.794 33.9624 521.989 62.9079 525.783 100.099L511.898 103.676C500.536 38.6085 463.291 19.3043 415.954 19.3043C343.678 19.3043 290.025 77.9369 290.025 173.368C290.025 248.796 330.429 336.745 422.906 336.745C438.371 336.745 453.527 333.168 463.618 327.453C473.709 321.367 479.39 313.863 479.39 293.839V250.934C479.39 212.325 476.56 208.748 428.568 204.451V189.444H553.245V204.451V204.473Z" fill="white" fill-opacity="0.62"/>
<path d="M346.685 354.434C332.28 395.268 317.798 435.686 304.433 472.201C304.433 472.201 178.427 153.801 156.588 90.4564C144.34 50.6481 144.879 42.7955 202.923 36.1645V9.64018H0V36.797C47.9335 41.0287 61.2409 50.0592 85.2173 115.825C129.954 241.291 197.589 431.324 251.396 593H278.55C304.876 515.128 333.281 434.116 360.955 358.273L346.685 354.456V354.434Z" fill="white" fill-opacity="0.62"/>
</g>
</svg>
