<svg width="657" height="610" viewBox="0 0 657 610" fill="none" xmlns="http://www.w3.org/2000/svg">
<g opacity="0.12" filter="url(#filter0_d_386_172)">
<path d="M579.862 473.342C579.651 472.92 579.229 472.709 578.806 472.286C577.75 471.441 576.905 470.596 575.849 469.751C575.426 469.329 575.004 468.906 574.37 468.484C573.948 468.062 573.314 467.85 572.892 467.428C571.835 466.583 570.779 465.738 569.723 465.104C569.089 464.682 568.456 464.471 567.822 464.259C567.188 464.048 566.766 463.837 566.132 463.626C563.809 462.569 561.696 460.88 559.373 460.035C558.95 460.035 558.739 459.612 558.317 459.612C558.105 459.612 557.894 459.19 557.683 458.979C557.472 458.979 557.049 458.767 556.838 458.556C556.838 458.345 556.627 457.922 556.416 457.711C555.571 456.444 555.148 454.965 554.726 453.487C554.515 452.219 554.092 450.741 554.092 449.262C554.092 448.628 554.092 447.995 554.092 447.361C554.092 446.727 553.67 445.882 553.458 445.46C553.247 445.037 552.613 444.615 551.98 444.192C551.557 443.77 550.924 443.559 550.501 443.348C549.868 443.348 549.234 442.925 548.6 442.714C548.389 442.714 547.966 442.714 547.755 442.714C547.333 442.714 547.122 442.714 546.699 442.503C545.22 442.503 543.742 442.503 542.474 442.503C541.63 442.291 540.785 442.08 540.151 442.08C539.728 442.08 539.306 442.08 538.884 442.08C538.461 442.08 538.039 442.08 537.616 441.869C537.194 441.869 536.982 441.869 536.56 441.869C536.138 441.869 535.715 441.869 535.293 441.658C534.87 441.658 534.448 441.658 534.025 441.446C533.603 441.446 533.18 441.446 532.969 441.446C531.49 441.024 529.801 440.813 528.322 440.602C526.843 440.39 525.365 440.179 523.886 439.757C522.408 439.334 520.929 438.912 519.45 438.7C519.028 438.7 518.817 438.7 518.394 438.7C518.183 438.7 517.76 438.489 517.549 438.278C516.916 438.278 516.493 438.278 515.859 438.067C515.437 438.067 515.226 437.856 514.803 437.856C514.592 437.856 514.17 437.856 513.958 438.067C513.536 438.067 513.325 438.489 512.902 438.912C512.48 439.334 512.057 439.968 511.424 440.179C511.001 440.39 510.579 440.813 509.945 440.813C509.311 440.813 508.678 441.235 507.833 441.235C507.199 441.235 506.354 441.024 505.72 440.813C504.875 440.813 504.242 440.39 503.608 439.968C502.974 439.757 502.341 439.123 501.918 438.489C501.073 437.644 500.017 436.166 499.806 434.898C499.383 433.42 498.961 431.941 498.327 430.674C497.694 429.406 497.06 428.139 495.581 427.505C494.736 427.294 494.103 427.294 493.258 427.083C492.624 427.083 492.202 427.083 491.568 426.872C490.934 426.872 490.512 426.449 489.878 426.238C489.244 426.027 489.033 425.393 488.611 424.759C487.977 423.703 487.343 422.225 487.132 420.957C487.132 420.535 487.132 420.112 487.132 419.69C487.132 419.267 487.132 419.056 486.921 418.634C486.921 418.422 486.921 418 486.921 417.789C486.921 417.577 486.921 417.155 486.71 416.944C486.71 416.521 486.71 416.31 486.498 415.888C486.498 415.676 486.498 415.254 486.498 414.831C486.287 414.409 485.653 413.775 485.231 413.564C484.175 412.719 483.119 412.085 481.64 412.085C480.161 412.085 479.105 412.085 477.627 412.085C476.571 412.297 474.669 412.719 473.613 412.085C472.557 411.241 471.923 409.339 471.501 408.072C471.29 407.227 471.079 406.171 470.867 405.326C470.656 404.692 470.445 404.059 470.022 403.214C469.6 402.58 469.389 401.946 468.755 401.313C468.333 400.89 467.699 400.468 467.065 400.257C466.432 400.045 465.798 399.834 465.164 399.834C464.53 399.834 464.319 399.834 463.897 399.834C463.474 399.834 463.052 399.834 462.418 400.045C461.996 400.045 461.362 400.045 460.939 400.045C460.517 400.045 460.095 400.045 459.672 400.257C458.827 400.257 457.982 400.257 457.137 400.257C456.504 400.257 455.87 400.257 455.236 400.257C455.025 400.257 454.603 400.257 454.391 400.257C453.758 400.257 453.758 399.834 453.758 399.2V309.005H571.413C571.413 308.583 571.413 307.949 571.413 307.526C571.413 306.893 571.835 306.259 572.258 305.625C573.103 304.992 573.948 304.992 574.793 304.78C575.638 304.569 576.483 304.358 577.539 304.358C579.017 304.358 580.707 304.358 581.975 304.358C584.087 304.78 586.199 305.837 588.1 306.893C589.368 307.526 590.846 307.738 592.325 307.315C593.803 306.893 595.916 306.259 596.972 307.738C597.394 308.371 597.394 309.005 597.606 309.85C597.606 310.484 598.239 310.906 598.873 310.906C600.352 310.906 602.253 310.484 603.309 311.117C604.365 311.751 604.999 313.23 606.266 313.652C606.9 313.863 607.111 313.652 607.322 314.497C607.322 314.708 607.322 315.342 607.322 315.553C607.322 316.187 606.689 316.82 607.322 317.454C608.167 318.722 610.279 318.088 611.124 317.454C612.603 316.609 612.603 314.286 614.082 313.652C614.926 313.23 615.56 313.23 616.405 313.652C617.039 314.074 617.672 314.286 618.517 314.074C619.996 313.652 620.841 312.173 620.841 310.906C620.841 309.427 620.418 307.949 621.686 306.893C622.108 306.47 622.953 306.048 623.798 306.048C624.221 306.048 624.643 306.048 624.854 306.048C625.488 306.048 625.277 306.048 625.699 306.048C626.967 305.837 629.29 305.837 630.558 306.048C630.98 306.048 631.402 306.259 631.825 306.259C632.247 306.259 632.67 306.259 633.092 306.259C633.726 306.259 634.571 306.259 635.416 306.259C636.894 305.836 639.007 305.625 640.485 306.048C640.908 306.048 641.119 306.259 641.753 306.048C642.386 306.048 642.386 306.048 642.809 306.048C643.443 306.048 644.287 306.048 644.921 306.048C644.921 306.47 645.132 306.893 645.344 307.315C645.344 307.949 645.766 308.371 645.766 309.005C645.766 310.061 645.132 311.329 644.499 312.385C644.076 313.018 643.654 313.441 643.231 313.863C643.02 314.286 642.809 314.919 642.598 315.342C641.964 316.609 641.541 317.877 641.541 319.144C641.541 319.778 641.541 320.623 641.541 321.256C641.541 322.101 641.33 322.313 641.119 322.946C641.119 323.58 640.908 324.002 640.697 324.636C640.697 325.27 640.485 325.903 640.274 326.326C640.063 326.96 639.852 327.382 639.64 328.016C639.64 328.227 639.64 328.649 639.64 328.861C639.64 329.283 639.218 329.494 639.007 329.917C638.373 331.184 637.951 332.452 637.528 333.719C637.106 334.986 636.472 336.254 636.261 337.521C636.261 338.366 635.838 338.789 635.838 339.633C635.838 340.267 635.838 341.112 635.838 341.746C635.838 342.379 636.261 343.013 636.261 343.647C636.261 343.858 636.261 344.28 636.261 344.492C636.261 344.703 636.472 344.914 636.683 345.337C636.894 346.604 636.683 348.083 636.049 349.139C636.049 349.772 635.627 350.195 635.416 350.617C635.205 351.251 634.782 351.674 634.36 352.307C633.726 353.575 633.092 354.631 632.459 355.898C632.247 356.532 632.036 356.954 632.036 357.588C632.036 358.222 631.402 358.855 631.191 359.489C630.769 360.545 630.558 361.601 630.135 362.658C629.924 363.714 629.29 364.77 629.079 365.826C628.868 366.882 628.023 367.938 628.023 368.994C628.023 369.628 628.023 370.262 628.023 370.895C628.023 371.74 628.445 372.374 628.445 373.219C628.234 374.275 627.6 375.331 626.544 376.176C625.488 376.81 624.221 377.232 623.164 377.866C622.108 378.5 621.263 379.556 620.418 380.19C620.207 380.19 619.785 380.401 619.574 380.612C619.151 380.823 619.151 381.246 618.729 381.457C618.306 381.879 617.672 381.879 617.25 382.302C617.25 382.302 617.039 382.724 616.828 382.724C616.828 382.724 616.405 382.724 616.194 382.936C615.56 383.358 615.349 384.203 615.138 384.837C614.926 385.259 614.715 385.893 614.504 386.315C614.504 386.738 614.504 386.949 614.504 387.372C614.504 387.583 614.293 387.794 614.082 388.216C614.082 388.85 614.082 389.273 613.659 389.695C613.237 390.117 613.237 390.751 612.814 391.385C612.392 391.807 612.18 392.23 611.547 392.23C610.913 392.23 610.491 392.441 609.857 392.441C609.012 392.441 608.801 392.441 608.801 393.497C608.801 394.342 608.801 394.765 609.223 395.398C609.857 396.666 610.068 397.722 609.646 398.989C609.646 399.623 609.434 400.257 609.012 400.89C608.801 401.524 608.59 401.946 608.378 402.58C608.378 403.214 607.956 403.847 607.745 404.27C607.745 404.481 607.322 404.692 607.111 404.904C607.111 405.115 606.9 405.326 606.688 405.537C606.055 406.382 605.21 407.016 604.576 408.072C603.942 409.128 603.309 410.396 602.886 411.663C602.675 412.93 603.943 414.198 603.943 415.465C603.943 416.944 602.041 416.944 601.619 418.422C601.408 419.69 602.253 420.746 602.464 422.013C602.464 422.858 602.464 423.069 601.83 423.703C601.408 424.126 600.985 424.337 600.563 424.759C599.718 425.393 599.084 426.238 598.662 427.083C598.028 427.928 597.606 428.984 597.183 430.04C596.972 430.462 596.549 431.096 596.338 431.73C596.127 432.364 596.127 433.208 595.916 433.842C595.916 434.265 595.493 434.898 595.282 435.532C595.282 436.166 595.071 436.588 594.648 437.011C594.015 437.856 593.17 438.7 592.958 439.757C592.747 440.39 592.747 441.024 592.536 441.446C592.536 441.658 592.325 441.869 592.325 442.08V442.503C592.325 442.714 592.114 442.925 592.114 443.136C591.902 444.404 592.114 445.882 592.114 447.361C592.114 448.417 591.48 449.896 591.057 450.741C590.846 451.163 590.424 451.586 590.213 452.219C589.79 452.853 589.79 453.487 589.579 454.12C589.579 454.543 589.156 455.176 588.945 455.81C588.945 456.444 588.945 457.289 588.945 458.134C588.945 458.556 588.945 458.767 588.945 458.979C588.945 458.979 588.945 458.979 588.945 459.19C588.945 459.401 588.945 459.401 588.945 459.612C588.945 460.457 589.579 460.88 590.001 461.513C590.635 462.358 591.269 463.837 590.424 464.893C590.213 465.316 589.79 465.527 589.579 465.949C589.368 466.583 589.368 467.217 589.368 468.062C589.368 468.484 589.579 469.329 589.368 469.751C588.945 470.385 588.311 469.751 587.889 469.751C587.255 469.54 587.255 469.54 586.833 470.174C586.41 471.019 586.833 471.652 586.41 472.497C585.988 473.765 584.298 475.243 582.819 475.032C582.397 475.032 581.763 474.61 581.13 474.398H580.707L581.13 472.497L579.862 473.342Z" fill="#0AAAA8"/>
<path d="M644.076 307.315C643.443 307.315 642.387 307.315 641.964 307.315C641.542 307.315 641.33 307.315 640.908 307.315C640.274 307.315 640.063 307.315 639.64 307.315C638.162 306.893 636.05 307.315 634.571 307.526C633.937 307.526 633.092 307.526 632.247 307.526C631.403 307.526 631.403 307.526 630.98 307.526C630.558 307.526 630.135 307.526 629.713 307.315C628.234 307.104 626.122 307.315 624.854 307.315C624.432 307.315 624.643 307.526 624.009 307.315C623.587 307.315 623.376 307.104 622.953 307.315C622.32 307.315 621.475 307.738 620.841 308.16C619.574 309.005 619.996 310.695 619.996 312.173C619.996 313.652 619.151 315.131 617.673 315.342C616.828 315.342 616.194 315.342 615.56 314.919C614.715 314.286 614.293 314.286 613.237 314.919C611.758 315.553 611.758 317.877 610.279 318.722C609.435 319.355 607.111 319.989 606.477 318.722C606.055 317.877 606.477 317.454 606.477 316.82C606.477 316.609 606.477 315.976 606.477 315.764C606.477 315.131 606.055 315.342 605.421 314.919C604.154 314.286 603.52 313.018 602.464 312.385C601.197 311.54 599.296 312.385 598.028 312.173C597.394 312.173 596.972 311.751 596.761 311.117C596.761 310.272 596.549 309.85 596.127 309.005C595.282 307.526 592.959 308.16 591.48 308.583C590.001 309.005 588.523 308.583 587.255 308.16C585.354 307.104 583.453 306.048 581.13 305.625C579.651 305.414 577.961 305.625 576.694 305.625C575.426 305.625 575.004 305.625 573.948 306.048C573.103 306.259 572.258 306.259 571.413 306.893C570.779 307.315 570.568 308.16 570.568 308.794C570.568 309.216 570.568 309.85 570.568 310.272H452.913V254.93H405.386V104.534C406.231 104.534 407.076 104.956 407.921 104.956C408.766 104.956 408.766 104.956 409.188 104.956C409.611 104.956 409.822 105.168 410.244 105.168C411.089 105.168 411.934 105.168 412.779 105.168C413.624 105.168 414.469 105.379 415.103 105.801C415.525 106.012 415.947 106.224 416.159 106.435C416.37 106.646 417.004 106.646 417.215 107.069C417.849 107.491 418.271 107.914 418.905 108.547C419.961 109.392 420.383 110.871 420.806 112.138C421.017 112.772 421.228 113.828 421.862 114.25C422.284 114.673 423.129 115.095 423.763 115.518C424.397 115.94 425.242 116.152 425.875 116.574C426.298 116.996 426.931 117.419 427.354 117.63C427.988 118.053 428.41 118.264 429.044 118.686C429.466 119.109 430.1 119.531 430.734 119.742C430.945 119.742 431.156 119.742 431.367 119.742H431.79C432.212 119.742 432.635 119.742 433.057 119.742C433.902 119.742 434.536 119.742 435.381 119.742C436.226 119.742 437.07 119.531 437.915 119.32C438.76 119.32 439.394 119.109 440.028 118.686C440.873 118.264 441.506 118.053 442.351 117.63C442.985 117.419 443.619 117.208 444.041 116.785C444.252 116.785 444.464 116.363 444.675 116.152C444.886 115.729 445.309 115.518 445.731 115.307C446.153 114.884 446.576 114.251 446.787 113.617C446.998 112.983 447.21 112.349 447.21 111.505C447.21 111.082 447.21 110.871 447.421 110.448C447.421 110.448 447.421 110.026 447.421 109.815C447.421 109.815 447.421 109.815 447.421 109.392C447.843 107.914 448.477 106.857 449.322 105.801C449.744 105.168 450.167 104.534 450.589 103.689C450.589 103.478 450.801 103.055 451.012 102.844C451.012 102.422 451.223 101.999 451.434 101.788C451.645 101.577 451.645 101.154 451.857 100.732C451.857 100.309 452.068 99.8868 452.49 99.4643C452.702 98.8307 453.124 98.4082 453.546 97.7745C454.18 96.5071 454.814 95.0285 454.814 93.5499C454.814 93.1275 454.814 92.4937 454.814 92.0713C454.814 91.6488 454.603 91.6488 454.603 91.2264C454.603 90.5927 454.18 89.959 453.969 89.3253C453.969 88.6916 453.758 87.4242 453.969 86.7905C453.969 86.1568 454.603 85.5231 454.814 84.8895C455.448 83.4108 456.081 82.1435 456.715 80.8761C456.715 80.6649 457.137 80.4536 457.137 80.0312C457.137 79.6087 457.349 79.3975 457.56 78.975C457.771 78.1301 457.982 77.4964 457.982 76.6515C457.982 75.8066 457.982 75.1729 457.771 74.5392C457.771 74.1167 457.771 73.9055 457.56 73.483C457.56 73.2718 457.137 73.0605 456.926 72.6381C456.081 71.3707 456.292 69.6809 456.926 68.4135C457.137 67.7798 457.56 67.1461 457.771 66.5124C457.982 65.8787 458.616 65.245 458.827 64.6113C459.038 63.7664 458.405 63.1327 457.771 62.7103C457.137 62.0766 456.504 61.4429 456.081 60.8092C455.448 61.6541 455.448 59.5418 455.236 59.5418C455.236 59.3306 455.236 58.9081 455.236 58.4857C455.236 58.0632 455.236 58.4857 455.236 58.0632V57.6407C455.236 57.0071 455.659 56.3734 455.87 55.9509C456.081 55.3172 456.292 54.6835 456.715 54.0498C456.715 53.8386 457.137 53.4161 457.349 52.9936C457.56 52.7824 457.771 52.5712 457.982 52.36C458.194 51.7263 458.616 51.3038 458.616 50.6701C458.616 50.4589 458.616 49.8252 458.616 49.4027C458.616 49.4027 458.194 48.9803 458.194 48.769C457.982 48.5578 457.982 48.3466 457.771 48.1354C457.771 47.9241 457.349 47.9241 457.137 47.7129C456.715 47.2904 456.293 46.868 456.504 46.2343C456.504 45.6006 457.137 45.1781 457.56 44.7557C457.982 44.122 458.194 43.4883 458.616 42.8546C458.616 42.6434 459.039 42.4321 459.25 42.0097C459.25 42.0097 459.25 41.5872 459.461 41.376C459.672 40.9535 459.883 40.3198 460.517 40.7423C460.94 40.9535 461.151 41.7985 461.573 41.7985C461.573 41.7985 461.996 41.7985 462.207 41.7985L462.418 40.9535C462.418 40.3198 461.996 39.8974 461.784 39.4749C461.784 39.0525 461.785 39.0525 461.573 38.63C461.573 38.63 461.362 38.2075 461.151 38.2075C460.517 37.7851 459.672 37.7851 459.039 37.7851C459.039 37.7851 459.038 37.7851 458.827 37.7851C458.827 37.7851 458.616 37.7851 458.405 37.7851C458.194 37.7851 457.982 37.5738 457.982 37.1514C457.982 36.7289 458.405 36.3065 458.405 35.884C458.405 35.6728 458.405 35.2503 458.616 35.0391C458.616 34.8278 458.616 34.4054 458.616 34.1942C458.616 33.9829 458.616 33.5605 458.616 33.3492C458.616 32.0819 459.461 31.0257 459.883 29.7583C460.306 28.9134 460.728 28.7021 461.362 29.7583C461.573 30.1808 461.785 30.6032 462.418 30.6032C463.474 30.6032 462.841 29.5471 462.841 28.9134C462.841 28.7022 462.629 28.2797 462.629 27.8572C462.629 27.646 462.629 27.2236 462.841 27.0123C462.841 26.5899 463.052 25.9562 463.474 25.5337C463.686 25.1112 464.319 24.4775 464.53 24.0551C464.742 23.6326 464.53 23.4214 464.742 23.2102C464.742 23.2102 464.742 22.999 464.742 22.7877C464.742 22.5765 464.953 22.5765 464.953 22.3652C464.953 22.3652 465.164 21.7315 465.375 21.3091C465.375 21.3091 465.375 20.8866 465.375 20.6754C465.375 20.4642 465.375 20.2529 465.375 20.0417C465.375 19.408 465.798 18.7743 465.798 17.9294C465.798 17.2957 465.798 16.662 465.798 16.0283C465.798 15.3946 465.798 15.1834 465.798 14.9722C465.798 14.7609 465.587 14.3385 465.375 14.1273C465.375 13.7048 465.375 13.7048 465.375 13.4936C465.375 13.2823 465.375 12.8599 465.375 12.6487C465.375 12.2262 466.009 11.5925 466.432 11.3813C466.643 11.3813 467.065 11.3813 467.276 11.3813C467.699 11.3813 467.699 11.3813 468.121 11.3813C468.966 10.5363 468.755 9.48018 469.389 8.63525C469.811 8.00156 470.445 7.5791 471.29 7.5791C472.346 8.21279 471.079 8.63527 471.29 9.4802C471.29 10.1139 472.557 10.3251 472.98 10.7476C473.402 11.17 474.036 12.2262 474.247 12.8599C474.67 14.3385 475.092 15.8171 475.303 17.507C475.303 18.3519 475.303 19.1968 475.303 20.0417C475.303 20.4642 475.726 20.6754 475.726 21.0979C475.726 21.3091 475.726 21.7316 475.726 22.154C475.726 23.4214 475.514 25.1112 476.359 26.1674C477.416 27.646 478.472 26.1674 479.95 27.0123C481.218 27.646 480.795 29.7583 480.795 30.8144C480.795 32.2931 481.007 33.5605 481.851 34.6166C482.274 35.4615 484.597 36.7289 484.175 37.7851C484.175 38.2075 483.33 38.4188 483.119 39.0525C483.119 39.4749 483.119 40.5311 483.119 40.9535C483.541 41.7984 484.386 41.376 485.02 41.7985C485.231 41.7985 485.865 42.8546 485.865 43.0658C485.865 43.6995 485.865 44.3332 485.865 45.1781C485.865 45.6006 486.498 46.4455 486.71 46.868C486.921 47.5017 487.132 48.1353 487.343 48.769C487.343 49.1915 487.766 49.8252 487.766 50.4589C487.766 51.3038 487.343 51.9375 487.132 52.5712C487.132 53.2049 487.132 53.8386 487.132 54.4723C486.921 55.3172 486.71 55.5284 487.132 56.5846C487.132 57.2183 487.555 57.6407 487.766 58.0632C488.188 59.1194 489.033 59.753 489.456 60.8092C490.301 62.9215 488.611 66.9349 491.357 67.991C492.413 68.4135 494.314 68.2023 494.948 66.9349C495.581 65.6675 494.736 64.4001 496.426 63.7664C497.06 64.6113 500.017 62.9215 500.44 62.0766C501.707 62.7103 503.186 62.9215 504.031 64.6113C504.242 65.0338 504.031 65.4563 504.031 65.8787C504.031 66.09 504.664 66.3012 504.876 66.5124C505.298 67.1461 505.72 67.7798 506.143 68.4135C506.988 69.6809 508.044 71.1595 509.311 72.0044C510.579 72.8493 512.269 72.6381 513.113 73.9055C513.325 74.3279 513.958 75.3841 514.17 75.8065C514.381 76.6515 514.17 77.2852 514.17 78.1301C514.17 78.975 514.592 79.6087 514.592 80.4536C514.592 81.2985 514.592 82.1435 514.592 82.7772C514.592 83.1996 514.592 83.6221 514.592 84.0445C514.592 84.0445 514.17 84.2558 514.17 84.6782C514.17 85.3119 514.592 86.1568 514.592 86.5793C515.015 87.8467 515.437 89.3253 516.071 90.3815C516.916 91.8601 517.338 93.3387 516.704 94.8173C516.071 96.0847 514.803 96.7184 515.226 98.197C515.437 99.4644 516.493 101.154 517.338 102.21C517.761 102.844 519.028 104.323 519.662 104.534C520.295 104.745 521.14 104.956 521.774 105.168C522.408 105.379 522.83 105.59 523.464 105.801C524.309 106.224 524.52 106.224 524.731 107.069C524.942 107.914 524.731 108.336 524.309 108.97C523.886 110.448 524.098 112.349 524.731 113.617C525.576 115.095 526.843 116.152 527.477 117.419C528.111 118.686 528.533 120.587 528.533 122.066C528.533 122.911 528.533 123.122 528.111 123.756C527.9 124.39 528.111 125.234 527.688 125.657C527.266 126.502 527.055 126.924 527.266 127.98C527.266 129.037 527.477 128.825 528.111 129.459C528.956 130.515 529.589 131.571 530.012 132.628C529.167 133.05 529.378 136.43 529.589 137.275C529.801 138.542 531.279 139.387 532.335 140.443C533.392 141.288 534.87 142.978 536.138 143.4C536.982 143.4 537.616 143.4 538.25 143.612C539.095 143.823 539.729 144.456 540.362 145.09C540.785 145.724 541.207 146.569 542.052 146.78C542.686 146.78 543.742 146.78 544.587 146.78C546.277 146.78 547.122 147.202 547.966 148.892C548.6 150.371 548.389 151.85 549.023 153.328C549.023 153.751 549.445 154.807 550.079 154.596C550.29 154.596 550.712 153.962 550.924 153.751C551.346 153.539 551.346 153.751 551.769 153.328C553.458 153.962 554.515 155.652 556.416 155.652C557.049 155.652 557.683 155.652 558.317 155.652C559.373 156.074 558.95 156.285 559.373 156.919C559.795 158.186 560.218 159.454 561.696 159.243C562.541 159.243 563.175 157.975 564.231 158.398C565.076 158.609 566.344 159.243 566.977 160.088C567.611 160.51 568.245 161.144 568.667 161.777C568.878 161.989 569.301 162.622 569.301 163.045C569.301 163.467 569.301 164.101 569.723 164.312C569.301 164.946 569.512 165.157 568.667 165.368C568.033 165.368 567.4 164.946 566.766 165.58C565.921 166.213 566.977 168.114 567.4 168.959C568.456 170.649 570.568 171.494 572.047 172.55C572.68 173.184 573.525 173.606 573.948 174.451C574.37 175.507 574.37 176.986 574.793 178.042C575.215 179.309 576.271 179.732 577.116 180.788C577.328 181.211 577.539 181.633 577.75 182.055C578.172 182.478 578.384 182.689 578.595 183.112C579.017 184.168 579.229 185.646 579.44 186.703C579.651 187.97 579.44 188.604 579.017 189.66C579.017 190.293 578.806 192.617 579.017 193.251C579.229 194.096 580.074 194.307 580.707 194.729C581.552 195.363 581.975 196.208 582.608 197.053C583.242 197.898 583.876 197.898 584.721 198.32C585.777 198.531 587.044 199.376 586.833 197.475C586.833 196.842 585.988 195.997 585.777 195.363C585.777 194.518 585.777 192.617 587.044 192.406C587.467 192.406 588.523 193.673 588.734 194.096C589.156 194.941 589.579 195.574 590.213 196.419C590.424 196.63 590.635 197.053 590.846 197.264C591.269 197.687 591.48 197.687 591.902 197.898C592.325 198.32 593.592 199.799 594.226 199.588C595.493 199.588 594.226 197.687 594.226 197.053C594.226 194.518 597.394 195.785 598.239 197.053C598.873 198.109 599.507 198.954 599.507 200.221C599.507 201.277 599.507 202.545 599.507 203.601C599.507 204.657 599.507 205.713 599.929 206.769C599.929 207.192 599.929 207.403 600.352 207.826C600.563 208.459 600.985 208.67 600.985 209.304C600.985 210.572 600.563 211.628 600.563 212.895C600.563 213.951 600.563 215.007 600.985 215.852C601.408 216.697 602.041 217.331 602.675 217.965C603.309 218.81 603.731 219.655 604.576 220.499C605.421 221.344 606.477 221.978 607.111 222.823C607.745 223.457 608.378 223.668 609.223 224.09C610.279 224.513 610.702 224.935 611.969 224.935C613.025 224.935 614.293 224.935 615.349 224.935C618.095 224.935 618.517 226.836 618.94 229.16C618.94 229.794 619.362 230.005 619.362 230.638C619.362 231.061 619.362 231.906 619.362 232.328C619.362 233.384 619.574 234.229 619.996 235.074C620.63 235.074 621.263 235.708 621.897 235.919C622.108 235.919 622.531 235.919 622.742 235.919C623.376 235.074 625.066 235.497 625.699 235.919C626.333 236.553 626.544 237.398 626.967 238.032C626.967 238.454 627.389 238.665 627.389 239.088C627.389 239.51 626.967 239.933 626.967 240.355C626.967 240.778 627.389 242.467 627.812 242.89C628.234 243.524 628.868 243.946 629.501 244.157C630.558 244.368 631.825 243.735 632.247 245.002C632.67 245.636 632.247 247.326 632.247 248.171V251.128C632.247 251.973 632.036 253.029 632.67 253.874C633.304 254.508 634.36 254.296 635.205 254.507C635.838 254.507 636.683 255.141 637.317 255.352C638.162 255.352 639.429 255.564 639.852 256.62C640.485 257.676 639.429 258.098 638.796 258.943C638.373 259.577 638.162 260.422 638.162 261.267C638.162 262.112 637.739 263.168 637.528 264.224C637.317 265.28 637.106 266.125 636.683 266.97C637.317 267.393 637.106 268.871 637.528 269.505C637.951 270.35 638.162 270.983 638.584 271.828C639.218 273.096 640.485 274.997 638.584 275.419C637.317 275.631 634.571 275.842 635.838 277.954C636.261 278.799 637.739 280.278 638.796 280.489C639.007 281.756 639.641 282.812 639.218 284.08C638.796 285.558 638.584 286.403 639.218 287.882C639.852 289.149 640.908 289.783 641.542 290.839C641.964 291.684 642.598 292.74 642.809 293.585C643.443 295.697 644.71 298.021 644.076 300.556C644.076 301.189 643.654 301.401 643.654 302.034C643.654 302.668 643.654 303.302 643.654 303.935C643.654 304.78 643.654 305.414 644.076 306.259V307.315Z" fill="#0AAAA8"/>
<path d="M579.862 473.342L579.44 475.243C579.017 475.243 578.595 475.032 577.961 475.032C576.483 475.032 575.215 475.032 573.737 475.032C572.469 475.032 571.413 475.455 570.146 475.666C569.512 475.666 568.667 475.666 568.033 475.666C567.4 475.666 566.766 476.088 566.132 476.299C565.499 476.299 565.076 476.299 564.442 476.722C563.809 477.144 562.964 477.356 562.33 477.567C561.063 477.989 560.007 478.623 558.739 479.046C558.317 479.257 557.683 479.679 557.261 479.89C556.627 480.524 555.993 480.735 555.148 481.158C553.247 482.214 551.98 484.115 550.29 485.382C549.445 486.016 548.178 486.439 547.333 487.284C546.488 488.128 545.854 489.185 545.009 490.029C544.164 490.874 543.742 492.142 542.686 492.775C541.63 493.409 540.362 494.043 539.095 494.254C538.461 494.254 537.616 494.254 536.982 494.254C536.349 494.254 535.504 493.832 534.659 493.832C533.603 493.832 531.702 493.409 530.857 494.254C530.434 494.465 530.012 494.888 530.012 495.31C530.012 495.733 530.857 496.578 531.068 496.789C531.702 497 532.124 497 532.547 497.634C532.969 498.056 532.969 498.69 533.392 499.324C534.448 500.802 533.392 501.858 531.702 501.436C530.434 501.013 529.589 499.746 528.745 498.69C528.111 497.845 526.843 496.789 525.787 496.578C525.154 496.578 524.52 496.578 523.886 496.578C523.464 496.366 522.83 495.733 522.619 495.31C521.985 494.465 521.563 493.409 520.929 492.564C520.295 491.508 519.873 490.663 519.239 489.607C519.028 489.185 518.605 488.762 518.394 488.34C518.183 487.706 518.394 486.861 518.394 486.227C518.817 484.537 517.549 484.538 516.071 484.538C514.803 484.538 513.958 485.382 513.958 486.65C513.958 487.495 513.958 487.706 513.536 488.34C513.325 488.762 513.113 489.396 512.691 489.818C511.424 490.452 509.945 489.818 509.1 488.973C508.678 488.762 508.466 488.34 508.044 487.917C507.41 487.283 507.199 487.072 506.777 486.439C507.41 486.016 507.199 485.382 508.044 485.382C508.466 485.382 508.678 485.382 509.1 485.382C509.311 485.382 509.734 485.382 510.156 485.382C511.001 485.171 512.057 483.693 512.057 483.059C512.057 482.003 511.424 480.524 510.79 479.89C510.367 479.468 509.734 479.257 509.311 479.046C509.1 479.046 508.678 479.046 508.255 479.046C507.833 479.046 507.833 479.257 507.41 479.257C506.777 479.257 506.354 479.257 505.72 479.679C505.298 479.89 504.875 480.313 504.664 480.735C503.608 482.003 505.087 482.636 505.509 483.904C505.932 485.171 504.242 486.227 503.397 486.861C502.763 487.283 502.341 487.283 501.918 487.495C501.496 487.495 501.496 487.706 501.073 487.706C500.651 487.706 500.228 487.706 500.017 487.706C499.806 487.706 499.595 488.128 499.383 488.128C499.172 488.128 498.75 488.128 498.539 488.34C497.905 488.762 497.694 489.396 497.271 490.029C496.637 490.874 495.793 491.508 495.159 492.142C494.314 492.987 493.258 493.409 492.413 494.254C491.99 494.677 491.568 495.099 491.357 495.521C490.934 495.944 490.934 496.366 490.512 496.789C489.456 497.634 487.977 497.211 486.71 496.789C485.231 496.366 484.597 495.31 483.752 494.254C483.33 493.832 482.908 493.409 482.485 492.775C482.063 492.142 481.429 491.931 480.795 491.508C479.95 491.086 479.105 490.452 478.049 490.029C477.627 489.818 477.415 489.396 476.782 489.185C476.571 489.185 476.148 489.185 475.726 489.185C475.303 489.185 474.881 488.973 474.458 488.762C473.191 488.34 471.712 488.128 470.445 487.706C469.811 487.706 469.178 487.283 468.755 487.072C468.121 487.072 467.276 487.072 466.643 486.861C466.432 486.861 466.22 486.65 466.009 486.65C465.587 486.65 465.375 486.65 464.953 486.65C464.319 486.65 463.686 486.439 462.841 486.439C462.207 486.439 461.362 486.439 460.728 486.439C460.517 486.439 460.095 486.439 459.672 486.439C459.25 486.439 459.25 486.439 458.827 486.65C458.616 486.65 458.405 486.65 457.982 486.65C457.771 486.65 457.56 487.072 457.137 487.072C456.715 487.072 456.293 487.072 456.081 487.072C455.659 487.072 455.448 487.495 455.025 487.495C454.603 487.495 454.391 486.65 454.18 486.439C453.758 485.805 453.547 485.594 453.124 485.171V399.834C453.124 400.468 453.124 400.679 453.758 400.89C453.969 400.89 454.391 400.89 454.603 400.89C455.236 400.89 455.87 400.89 456.504 400.89C457.349 400.89 458.194 400.89 459.039 400.89C459.461 400.89 459.883 400.89 460.306 400.679C460.728 400.679 461.362 400.679 461.784 400.679C462.207 400.679 462.629 400.468 463.263 400.468C463.686 400.468 464.108 400.468 464.53 400.468C465.164 400.468 465.798 400.468 466.432 400.89C467.065 401.101 467.699 401.524 468.121 401.946C468.755 402.58 468.966 403.214 469.389 403.847C469.811 404.481 470.022 405.115 470.234 405.96C470.656 406.805 470.656 407.861 470.867 408.706C471.29 409.973 471.924 411.874 472.98 412.719C474.036 413.564 475.726 413.142 476.993 412.719C478.26 412.508 479.528 412.719 481.006 412.719C482.485 412.719 483.541 413.142 484.597 414.198C485.02 414.62 485.654 415.043 485.865 415.465C485.865 415.676 485.865 416.099 485.865 416.521C485.865 416.944 485.865 417.155 486.076 417.577C486.076 417.789 486.076 418.211 486.287 418.422C486.287 418.634 486.287 419.056 486.287 419.267C486.287 419.69 486.498 419.901 486.498 420.323C486.498 420.746 486.498 421.168 486.498 421.591C486.71 422.858 487.343 424.337 487.977 425.393C488.4 426.027 488.611 426.449 489.244 426.872C489.878 427.083 490.301 427.294 490.934 427.505C491.568 427.505 491.99 427.505 492.624 427.716C493.469 427.716 494.103 427.928 494.948 428.139C496.426 428.561 497.06 429.829 497.694 431.307C498.327 432.575 498.961 434.053 499.172 435.532C499.383 436.799 500.44 438.278 501.285 439.123C501.707 439.757 502.341 440.179 502.974 440.602C503.819 440.813 504.453 441.235 505.087 441.446C505.72 441.446 506.565 441.869 507.199 441.869C507.833 441.869 508.678 441.869 509.311 441.446C509.945 441.446 510.367 441.024 510.79 440.813C511.212 440.602 511.846 439.968 512.269 439.545C512.691 439.334 512.902 438.912 513.325 438.7C513.536 438.7 513.958 438.489 514.17 438.489C514.592 438.489 514.803 438.489 515.226 438.7C515.859 438.7 516.282 438.7 516.916 438.912C517.127 438.912 517.549 439.123 517.761 439.334C518.183 439.334 518.394 439.334 518.817 439.334C520.295 439.334 521.774 439.968 523.253 440.39C524.731 440.813 526.21 441.024 527.688 441.235C529.167 441.447 530.857 441.658 532.335 442.08C532.758 442.08 533.18 442.08 533.392 442.08C533.814 442.08 534.237 442.08 534.659 442.291C535.081 442.291 535.504 442.291 535.926 442.503C536.349 442.503 536.56 442.503 536.982 442.503C537.405 442.503 537.827 442.714 538.25 442.714C538.672 442.714 539.095 442.714 539.517 442.714C540.362 442.714 541.207 442.714 541.841 443.136C543.319 443.559 544.798 443.136 546.065 443.136C546.488 443.136 546.699 443.136 547.122 443.348C547.333 443.348 547.755 443.348 547.966 443.348C548.6 443.348 549.234 443.77 549.868 443.981C550.501 443.981 550.924 444.404 551.346 444.826C551.769 445.249 552.402 445.671 552.825 446.094C553.247 446.727 553.458 447.361 553.458 447.995C553.458 448.628 553.458 449.262 553.458 449.896C553.458 451.374 553.67 452.642 554.092 454.12C554.303 455.388 554.937 457.078 555.782 458.345C555.782 458.556 555.993 458.979 556.204 459.19C556.204 459.401 556.627 459.401 557.049 459.612C557.261 459.612 557.472 460.035 557.683 460.246C558.106 460.246 558.317 460.668 558.739 460.668C561.274 461.513 563.175 463.414 565.499 464.259C566.132 464.471 566.555 464.682 567.188 464.893C567.822 465.104 568.456 465.527 569.09 465.738C570.146 466.372 571.202 467.428 572.258 468.062C572.68 468.484 573.314 468.695 573.737 469.118C574.159 469.54 574.793 469.963 575.215 470.385C576.06 471.23 577.116 472.075 578.172 472.92C578.595 473.131 579.017 473.554 579.229 473.976L579.862 473.342Z" fill="#0AAAA8"/>
<path d="M562.753 540.514C562.964 540.936 563.175 541.358 563.175 541.781C563.175 542.414 562.964 542.837 562.753 543.471C562.753 543.682 562.753 543.893 562.753 544.316C562.753 544.527 562.541 544.949 562.541 545.161C562.541 545.583 562.119 546.217 562.119 546.85V548.329C562.119 548.963 562.119 549.385 562.119 550.019C562.119 550.441 562.119 550.864 562.541 551.286C562.541 551.92 562.541 552.554 562.753 553.187C562.753 553.61 562.753 554.243 562.753 554.666C562.753 555.3 562.753 555.933 562.753 556.567C562.753 557.201 562.753 557.201 562.753 557.412C562.753 557.834 562.753 557.834 562.753 558.257C562.753 558.468 562.753 558.891 562.753 559.313C562.753 559.524 562.753 559.947 562.753 560.369C562.964 561.214 563.175 562.693 561.697 562.481C561.274 562.481 560.852 562.059 560.218 562.059C559.373 562.059 559.373 562.693 559.373 563.326C559.373 563.96 559.373 563.749 559.373 563.96C559.373 564.171 559.373 564.383 559.373 564.594C559.373 565.016 559.584 565.861 559.373 566.495C559.162 566.706 558.739 566.706 558.317 566.917C557.894 566.917 557.472 567.34 557.261 567.762C557.049 568.185 557.049 568.818 557.049 569.241C557.049 569.452 557.049 569.663 557.049 569.875C557.049 570.297 557.049 570.508 557.049 570.931V572.409C557.049 572.62 557.049 572.832 557.049 573.043C557.049 573.254 557.049 573.677 557.049 574.099C557.049 574.522 556.838 574.944 556.627 575.367C556.627 576 556.416 576.423 556.205 576.845C555.993 577.268 556.205 577.268 556.205 577.479C556.205 577.479 556.205 577.69 556.205 577.901C556.205 577.901 556.205 577.901 556.205 578.112C556.205 578.535 556.416 579.169 556.627 579.591C556.838 580.225 557.049 580.647 557.261 581.281C557.472 581.703 557.894 582.337 558.106 582.971C558.106 583.816 558.739 585.083 558.106 585.928C557.894 586.351 557.683 586.773 557.049 587.195C556.627 587.195 556.205 587.829 555.782 587.829C555.36 587.829 555.148 587.829 554.937 587.829C554.726 587.829 554.515 587.618 554.303 587.407C554.092 586.984 553.881 586.562 553.459 586.35C552.825 585.506 552.191 584.449 553.459 583.816C553.67 583.816 553.881 583.816 554.092 583.816C554.092 583.816 554.303 583.816 554.515 583.816C554.515 583.816 554.515 583.816 554.726 583.816C554.726 583.816 554.937 583.816 555.148 583.816C555.148 583.816 555.148 583.816 555.36 584.027C555.36 584.027 555.782 584.027 555.782 584.238C555.993 584.027 556.205 583.816 556.205 583.605C556.205 583.393 556.205 582.76 555.782 582.548C555.36 581.703 554.937 581.07 554.303 580.647C554.092 580.647 553.67 580.436 553.247 580.225C553.247 580.225 553.036 580.225 552.825 580.225C552.825 580.225 552.614 580.225 552.402 580.225C552.191 580.225 551.557 580.225 551.346 580.647C551.346 580.859 551.346 581.281 551.135 581.703C551.135 582.126 550.079 583.182 549.656 582.76C549.234 582.548 548.811 581.492 548.178 581.915C547.755 582.126 547.333 583.182 547.122 583.605C547.122 584.027 547.122 584.238 547.122 584.661C547.122 584.661 547.122 585.083 547.122 585.294C547.122 585.294 547.122 585.717 547.122 585.928C547.122 586.562 547.333 587.407 547.122 588.04C547.122 588.252 546.91 588.463 546.699 588.674C546.488 588.885 546.699 589.308 546.277 589.519C545.432 590.364 544.376 587.829 543.742 588.04C543.32 588.04 542.897 589.096 542.897 589.519C542.897 590.153 542.897 590.786 542.475 591.631C542.475 592.265 541.841 592.899 541.63 593.532C541.418 594.166 540.996 594.8 540.362 595.433C539.94 595.856 539.94 596.912 539.306 596.912C538.672 596.912 538.039 596.49 537.405 596.278C536.138 595.856 535.081 594.589 533.814 593.955C533.603 593.955 533.18 593.532 532.969 593.321C532.758 593.11 532.336 593.321 531.913 593.321H529.801C528.956 593.321 528.322 593.321 527.688 593.321C527.266 593.321 526.21 592.899 525.999 592.476C525.787 591.631 527.266 592.054 527.688 591.842C528.111 591.842 528.322 591.631 528.745 591.42C528.745 591.42 528.956 591.42 529.167 591.42C529.167 591.42 529.378 591.42 529.589 591.42C529.589 591.42 529.801 590.786 529.589 590.575C529.589 590.153 528.956 589.941 528.745 589.73C528.533 589.73 528.322 589.73 528.111 589.519H527.688C527.688 589.519 527.266 589.519 527.055 589.519C526.632 589.519 526.421 589.519 525.999 589.519C525.576 589.519 525.576 589.519 525.576 589.519C525.365 589.519 525.154 589.519 524.942 589.519C524.309 589.519 523.464 589.308 522.83 588.885C522.619 588.885 522.408 588.463 522.196 588.252C522.196 588.252 521.985 588.252 521.774 588.04C521.774 588.04 521.563 587.829 521.352 587.618C520.929 587.195 520.507 586.773 520.295 586.139C520.084 585.506 520.084 584.661 519.662 584.027C519.45 583.182 519.028 582.548 518.606 581.915C518.394 581.281 517.972 580.647 517.338 580.225C516.704 579.802 516.704 579.591 516.493 579.169C516.282 578.957 516.071 578.535 516.071 578.112C515.859 577.479 515.437 577.056 515.226 576.423C515.226 576 515.226 575.789 515.226 575.367C515.226 575.367 515.226 575.155 515.226 574.944C515.226 574.733 515.226 574.522 515.226 574.31C515.226 574.099 515.226 574.099 515.226 573.888C515.226 573.888 515.226 573.465 515.226 573.254C515.226 572.832 515.226 572.621 515.226 572.198V570.086C515.226 569.875 515.226 569.452 515.226 569.241C515.437 569.241 515.648 569.663 515.86 569.875C516.282 570.297 516.704 570.931 517.338 571.142C517.761 571.564 518.183 571.987 518.606 572.409C519.028 572.832 519.239 573.254 519.662 573.677C520.084 573.888 520.507 573.677 520.718 573.677C520.929 573.677 521.14 573.677 520.929 573.254C520.929 573.043 520.718 572.621 520.507 572.621C519.873 571.987 519.239 571.142 518.606 570.297C517.549 569.03 515.648 567.762 515.226 566.072C515.226 566.072 515.226 565.65 515.226 565.439C515.226 565.227 515.226 565.227 515.226 565.016C515.226 564.805 515.226 564.594 515.226 564.383C515.226 564.171 515.226 563.749 515.226 563.538C515.226 563.115 515.015 562.693 514.803 562.481C514.592 562.059 514.381 561.425 513.958 561.003C513.325 560.158 512.48 559.735 512.057 558.891C511.424 558.046 511.001 557.201 510.156 556.567C509.523 555.933 509.1 554.877 508.466 554.032C508.044 553.187 507.833 552.131 507.41 551.286C507.41 551.075 507.41 550.864 507.41 550.653C507.41 550.441 507.41 550.23 507.199 550.019C507.199 549.596 506.777 548.963 506.777 548.54C506.777 548.118 506.777 547.695 506.777 547.273V546.639C506.777 546.428 506.777 546.217 506.777 546.005C506.777 545.583 506.777 545.161 506.565 544.738C506.565 544.316 506.565 543.893 506.354 543.471C506.354 543.048 505.932 542.837 505.72 542.415C505.72 542.203 505.298 541.781 505.298 541.358C505.298 540.936 505.72 540.514 505.932 540.302C506.354 540.302 506.565 540.725 506.988 540.725C507.622 540.725 508.044 540.725 508.044 540.091C508.044 539.669 508.044 539.246 508.044 538.824C508.044 538.612 508.044 538.401 508.044 538.19C508.044 537.979 508.044 537.768 508.044 537.556C508.044 537.345 508.466 536.711 508.678 536.711C508.889 536.711 509.734 536.711 509.945 536.711C510.368 536.711 511.001 536.923 511.424 537.345C511.846 536.923 512.057 538.19 512.48 537.768C512.48 537.979 512.902 537.768 513.114 537.768C513.114 537.768 513.536 538.19 513.747 538.19C514.17 538.401 514.381 538.824 514.803 539.035C515.226 539.246 515.648 539.457 516.071 539.88C516.493 540.091 516.916 540.513 517.338 540.725L517.761 540.936C517.972 540.936 518.183 540.936 518.606 540.936C518.817 540.936 519.239 540.936 519.45 540.936H519.873C520.929 540.936 521.774 541.57 522.83 541.781C524.52 542.414 526.421 543.048 528.322 543.682C528.745 543.682 529.167 544.104 529.589 544.316C529.589 544.316 529.801 544.316 530.012 544.316C530.012 544.316 530.223 544.316 530.434 544.316C530.434 544.316 530.434 544.316 530.646 544.527C530.857 544.527 531.702 544.527 532.124 544.527C532.547 544.527 532.758 544.527 532.969 544.527C533.18 544.527 533.392 544.527 533.814 544.527C534.237 544.527 534.659 544.527 535.081 544.527C535.715 544.527 536.138 544.527 536.771 544.527C537.194 544.527 537.616 544.104 537.828 544.104C537.828 544.104 538.039 544.104 538.25 544.104C538.461 544.104 538.884 544.104 539.095 544.104C539.306 544.104 539.517 544.104 539.729 544.104C539.94 544.104 539.94 544.104 540.362 544.104C540.362 544.104 540.362 544.316 540.574 544.527C540.574 544.738 540.573 545.161 540.785 545.583C540.996 546.006 541.418 545.794 541.63 545.583C541.841 545.161 541.63 544.527 541.841 544.104C541.841 544.104 541.841 543.893 541.841 543.682C541.841 543.682 541.841 543.26 542.052 543.048C542.052 543.048 542.263 542.837 542.475 542.626C542.475 542.626 542.686 542.626 542.897 542.626C542.897 542.626 542.897 542.626 543.108 542.626C543.108 542.626 543.319 542.626 543.531 542.626C543.531 542.626 543.742 542.626 543.953 542.626C544.164 542.626 544.376 542.626 544.587 542.626C545.221 542.626 545.643 542.626 546.277 542.626C546.699 542.626 547.122 542.626 547.544 542.203C547.967 542.203 548.389 541.992 548.811 541.781C549.234 541.781 549.656 541.57 549.868 541.147C549.868 541.147 550.079 540.936 550.29 540.725C550.29 540.725 550.713 540.725 550.924 540.302C551.346 540.091 551.557 539.669 551.98 539.457C552.402 539.246 553.247 539.246 553.67 539.457C554.092 539.669 554.515 540.091 554.937 540.091C555.36 540.091 555.782 539.669 556.205 539.669C556.627 539.457 557.049 539.246 557.472 538.824C557.894 538.401 558.317 537.979 558.739 537.979C558.951 537.979 559.373 537.979 559.584 537.979C559.795 537.979 560.007 538.401 560.218 538.612C560.429 539.035 560.852 539.246 561.063 539.669C561.274 540.091 561.485 540.513 561.908 540.936C562.119 541.358 562.541 541.57 562.964 541.992L562.753 540.514Z" fill="#0AAAA8"/>
<path d="M453.124 309.216V484.749C452.49 484.115 451.857 483.059 451.012 482.425C449.956 481.58 448.477 482.003 447.21 481.792C446.787 481.792 446.365 481.369 446.153 481.369C445.942 481.369 445.52 481.369 445.308 481.369C444.886 481.369 443.83 481.369 443.407 481.369C442.351 481.158 441.295 479.468 440.661 478.412C440.661 477.989 440.239 477.778 440.028 477.567C440.028 477.567 439.816 477.144 439.605 476.933C439.183 476.511 438.76 475.877 438.549 475.455C437.704 474.61 436.437 473.976 435.592 472.92C434.958 472.286 434.536 471.652 433.902 471.019C433.48 470.807 433.268 470.385 433.057 469.963C432.846 469.54 432.212 469.329 432.001 469.118C431.156 468.062 430.311 466.583 429.466 465.527C429.044 464.893 428.833 464.259 428.833 463.626C428.833 462.992 428.41 462.358 428.621 461.513C428.621 461.302 428.833 461.091 428.833 460.668C428.833 460.457 428.833 460.035 428.833 459.612C428.833 458.767 428.832 458.556 429.255 457.922C429.255 457.711 429.255 457.289 429.255 457.078C429.255 456.866 429.466 456.444 429.677 456.021C429.889 455.388 430.522 454.754 430.734 453.909C430.945 452.642 430.734 451.163 430.311 450.107C429.889 448.84 429.255 447.572 428.621 446.305C427.988 445.249 427.565 444.193 426.931 443.136C426.509 442.503 426.087 442.08 425.664 441.446C425.03 440.813 424.819 440.39 424.185 439.757C423.341 438.912 422.284 438.067 421.439 437.433C420.383 436.588 418.905 436.166 418.06 435.11C417.637 434.687 417.426 434.265 417.004 433.842C416.581 433.42 415.947 433.42 415.525 432.997C415.103 433.42 414.258 432.997 413.624 432.997C413.201 432.997 412.779 432.575 412.357 432.786C411.934 432.786 411.723 432.997 411.512 432.997C411.089 432.997 410.878 432.997 410.455 432.997C410.244 432.997 409.822 433.42 409.611 433.631C409.188 433.631 408.766 434.053 408.554 434.265C408.343 434.265 407.709 434.476 407.498 434.898C406.442 434.476 405.386 433.42 404.541 432.575C404.119 432.152 403.696 431.73 403.907 431.096C403.907 430.885 404.541 430.674 404.752 430.462C404.964 430.04 405.386 429.829 405.597 429.406C406.653 428.561 407.287 427.294 407.921 426.238C408.132 425.815 408.554 425.393 408.766 424.971C408.977 424.337 409.611 423.703 409.822 423.069C409.822 422.647 409.822 422.436 409.822 422.013C409.822 421.591 410.244 421.591 410.244 421.168C410.244 420.746 410.033 420.746 410.033 420.535C410.033 420.112 410.033 419.69 410.033 419.479C410.033 418.211 409.188 416.944 408.977 415.676C408.977 415.043 408.766 414.831 408.343 414.409C407.921 413.987 407.287 413.353 407.076 412.93C406.865 412.508 406.653 412.085 406.231 411.663C405.808 411.241 405.175 410.396 404.964 409.762C404.964 409.551 404.964 409.128 404.964 408.706C404.964 408.283 404.752 408.283 404.752 407.861C404.752 407.438 404.964 406.171 404.752 405.749C404.33 405.326 403.696 405.537 403.274 405.749C402.217 406.171 402.217 406.805 401.584 407.65C400.739 408.917 400.528 410.184 400.105 411.452C400.105 411.874 399.683 412.297 399.471 412.719C399.049 413.142 398.627 413.564 398.627 413.987C398.627 414.198 398.627 414.62 398.627 414.831C398.627 415.254 398.415 415.254 398.415 415.676C398.415 416.099 398.627 416.31 398.627 416.733C398.627 417.155 398.415 417.155 398.415 417.577C397.993 418.845 398.838 420.535 398.415 422.013C398.204 423.281 397.57 424.126 396.303 424.759C395.881 424.971 395.247 425.393 394.824 425.393C394.191 425.393 393.135 425.393 392.501 425.393C391.022 425.393 390.177 425.393 388.91 426.027C387.643 426.872 387.22 428.35 385.742 428.561C384.474 428.773 383.629 428.139 382.784 427.083C381.939 426.027 382.362 424.548 382.784 423.281C383.207 422.013 384.897 420.957 385.953 420.535C387.22 420.112 388.276 419.479 389.755 419.056C391.234 418.634 392.501 418.634 393.557 417.366C394.402 416.521 394.824 414.62 394.613 413.353C394.613 413.142 394.402 412.93 394.191 412.719C394.191 412.508 394.191 412.085 394.191 411.874C394.191 411.452 393.768 410.818 393.557 410.184C393.135 408.917 393.557 407.016 393.979 405.749C394.402 404.481 394.824 403.425 395.247 402.158C395.669 400.679 396.726 399.623 397.57 398.355C398.204 397.299 399.471 396.877 400.316 395.821C401.161 394.765 401.161 393.075 400.528 392.019C400.528 391.596 399.894 391.174 399.894 390.751C399.894 390.329 399.894 390.117 399.894 389.695C399.894 389.273 399.683 389.273 399.683 388.85C399.683 388.216 400.105 387.794 400.316 387.16C400.739 386.527 400.95 385.893 401.373 385.259C401.373 384.625 401.584 384.203 401.584 383.569C401.584 382.936 401.584 382.091 401.584 381.246C401.584 380.823 401.584 380.612 401.373 380.19C401.373 379.767 401.373 379.556 401.373 379.134C401.373 378.711 400.95 377.866 400.739 377.444C400.739 377.232 400.105 376.599 399.894 376.388C399.049 375.965 399.049 376.81 398.838 377.444C398.838 377.866 398.627 377.866 398.627 378.289C398.627 378.711 398.627 378.922 398.627 379.345C398.627 380.19 398.415 380.823 398.415 381.668C398.415 384.414 396.303 385.893 394.613 387.583C392.923 389.273 391.022 390.751 391.022 392.863C391.022 393.708 391.022 394.131 390.811 394.976C390.811 395.187 390.811 395.398 390.811 395.61C390.811 396.032 390.389 396.454 390.177 396.877C390.177 397.088 390.177 397.299 389.966 397.511C389.966 397.933 389.755 397.933 389.332 398.144C388.91 398.355 388.276 398.567 387.854 398.778C387.22 398.989 386.586 399.412 386.164 399.623C384.897 400.257 383.418 400.89 382.151 401.313C381.306 401.524 380.25 401.946 379.405 402.369C378.56 403.003 377.292 404.059 377.292 405.115C377.292 405.749 377.292 406.171 377.292 406.805C377.292 407.438 377.292 407.861 376.87 408.283C376.87 408.495 376.87 408.495 376.447 408.706C376.447 408.706 376.025 408.917 375.814 408.917C375.391 408.917 374.758 408.917 374.335 409.339C373.49 409.762 373.279 410.818 373.068 411.663C373.068 411.663 373.068 411.663 373.068 411.874V412.297C373.068 412.297 372.856 412.719 372.645 412.719C372.012 412.93 371.378 412.719 370.955 412.93C370.322 413.142 370.11 413.353 370.11 413.987C370.11 414.198 370.11 414.62 370.11 414.831C370.11 415.254 370.322 415.254 370.322 415.676C370.322 416.31 370.322 416.521 370.533 417.155C370.533 417.155 370.955 417.577 371.167 417.789C371.378 418 371.167 418 371.167 418.211C371.167 418.211 371.167 418.211 371.167 418.634C371.167 419.056 370.744 419.69 370.533 419.901C369.688 420.323 369.477 419.479 369.054 419.056C367.998 418.422 366.942 419.056 365.886 419.056C364.83 419.267 363.562 418.422 362.929 417.789C362.084 416.944 361.239 415.888 360.816 414.831C360.816 414.62 360.816 414.409 360.816 414.198C360.816 414.198 360.816 413.775 360.605 413.564C360.605 412.719 361.028 412.719 361.661 412.508C362.084 412.508 362.717 412.508 362.929 411.874C363.14 411.241 363.351 410.818 363.14 410.396C362.929 409.339 362.717 408.072 362.084 407.016C361.028 405.115 359.971 402.791 358.915 400.89C358.282 400.045 357.437 399.412 356.803 398.567C356.592 398.144 356.169 397.933 355.747 397.511C355.324 397.299 354.902 397.088 354.691 396.666C353.846 395.609 354.057 394.553 354.057 393.286C354.057 393.075 354.057 392.864 354.057 392.652C354.057 392.441 354.057 392.019 354.057 391.807C354.057 391.596 354.057 391.385 353.846 391.174C353.846 390.751 353.846 390.54 353.635 390.117C353.212 389.061 352.367 388.005 351.1 387.372C350.044 386.949 348.565 387.16 347.509 387.16C346.453 387.16 346.453 387.16 346.03 387.16C345.608 386.949 345.185 386.527 344.974 386.104C344.34 385.259 343.918 383.992 343.918 382.936C343.918 382.302 343.707 381.879 343.918 381.246C343.918 380.612 343.918 379.978 343.918 379.345C343.918 378.077 346.03 379.134 346.241 377.655C346.241 376.599 345.608 375.754 344.974 374.909C344.34 373.853 343.284 373.853 342.017 373.853C341.383 373.853 341.172 374.275 340.749 374.486C340.327 374.698 339.693 374.698 339.06 374.698C338.426 374.698 338.003 374.698 338.215 373.853C338.215 373.219 338.637 372.797 339.06 372.374C339.271 371.952 339.482 371.529 339.693 371.107C339.905 370.684 339.905 370.896 339.693 370.473C339.693 370.262 339.482 370.051 339.271 369.628C339.06 369.206 338.637 368.783 338.426 368.572C338.003 368.15 337.581 368.15 337.159 368.15C336.947 368.15 336.736 368.15 336.525 368.15C336.314 368.15 335.891 368.15 335.68 368.15C335.046 368.15 334.413 368.572 333.99 368.572C332.934 368.783 332.089 370.051 330.822 369.839C328.921 369.417 327.231 367.938 325.963 366.46C325.118 365.615 324.273 364.981 323.429 364.559C322.584 364.136 321.105 363.925 320.26 364.559C319.204 364.981 317.937 365.192 316.88 365.404C316.458 365.404 315.824 365.826 315.402 366.037C314.979 366.249 314.134 366.037 313.712 366.037C312.445 365.404 311.6 364.559 310.544 363.925C309.699 363.291 308.854 362.869 308.009 362.235C307.164 361.601 307.164 361.601 307.164 361.179C307.164 360.968 307.164 360.756 307.164 360.545C307.164 360.334 306.741 359.912 306.53 359.7C306.108 359.278 305.685 359.067 305.263 358.855C305.052 358.855 304.84 358.433 304.629 358.433C304.418 358.433 303.995 358.433 303.573 358.222C303.15 358.222 302.517 358.01 302.094 357.799C301.672 357.799 301.672 357.799 301.249 357.799C301.249 357.799 301.038 357.799 300.827 357.799C300.616 357.799 300.404 357.799 299.982 357.799C299.56 357.799 299.348 357.799 299.137 357.588C298.926 357.588 298.503 357.588 298.292 357.588C297.658 357.588 297.025 357.588 296.602 358.01C296.18 358.01 295.757 358.433 295.335 358.433C295.124 358.433 294.701 358.433 294.49 358.644C294.49 358.644 294.068 358.855 293.856 359.067C293.645 359.067 293.223 359.067 293.011 359.067C292.589 359.067 292.589 359.067 292.166 359.067C291.955 359.067 291.533 359.067 291.322 359.067C291.11 359.067 290.688 358.855 290.477 358.644C289.843 358.644 289.209 358.644 288.787 358.222C288.364 358.01 287.731 357.799 287.097 357.799C286.463 357.799 285.83 357.799 285.196 357.799C284.351 357.799 283.717 358.01 283.084 358.222C282.027 358.433 280.971 358.855 279.704 359.067C279.493 359.067 279.281 359.067 279.07 359.278C278.859 359.278 278.436 359.278 278.225 359.278C278.014 359.278 277.803 359.278 277.592 359.489C277.169 359.489 276.958 359.489 276.535 359.489C276.324 359.489 276.113 359.489 275.902 359.7C275.69 359.7 275.268 359.7 275.057 359.7C274.846 359.7 274.423 359.7 274.212 359.7C274.001 359.7 273.789 359.7 273.367 359.7C273.156 359.7 272.733 359.7 272.522 359.7C272.1 359.7 272.1 359.7 271.677 359.912C271.466 359.912 271.043 359.7 270.832 359.912C270.832 359.912 270.832 359.912 270.621 359.912C270.621 359.912 270.198 359.912 269.987 359.912C268.931 359.912 267.452 359.7 266.396 359.912C266.185 359.912 265.763 359.912 265.551 359.912C265.34 359.912 264.918 360.123 264.706 360.334C264.073 360.334 263.439 360.334 262.805 360.334V253.874H455.025V309.216H453.124Z" fill="#0AAAA8"/>
<path d="M405.597 103.478V253.874H260.904V74.3279C261.538 74.3279 261.749 74.7504 262.172 75.1728C262.594 75.5953 262.805 76.0178 263.228 76.4402C263.439 76.8627 263.862 77.2852 264.495 77.4964C264.495 77.2852 265.34 77.0739 265.551 76.8627C265.974 76.6515 265.974 76.229 266.396 75.8065C267.03 74.9616 267.453 75.1728 268.297 75.8065C269.142 76.229 270.199 76.8627 270.832 77.4964C271.043 77.7076 271.255 78.3413 271.677 78.3413C272.1 78.3413 272.1 77.4964 272.1 77.0739C272.1 76.0178 271.677 75.3841 271.677 74.3279C271.677 74.1167 271.677 73.6943 271.677 73.483C271.677 73.0606 271.677 73.2718 272.1 73.0605C272.522 73.0605 272.945 73.0605 273.367 73.0605C273.789 73.0605 274.423 73.0605 274.634 73.0605C274.846 72.6381 274.423 72.4268 274.212 72.2156C274.001 72.0044 273.578 72.0044 273.367 71.7932C273.156 71.5819 272.944 71.5819 272.733 70.9482C272.733 70.5258 272.311 70.3145 272.311 69.8921C272.311 69.4696 272.311 68.8359 272.311 68.6247C272.311 68.4135 272.522 68.6247 272.311 67.991C272.311 67.991 272.311 67.5686 271.888 67.5686C271.466 67.3573 271.043 67.5686 270.621 67.5686C270.41 67.5686 269.987 67.1461 269.565 66.9349C269.354 66.9349 268.931 66.7236 268.72 66.5124C268.509 66.3012 268.297 65.6675 268.297 65.245C268.297 64.8226 268.509 64.4001 268.72 64.1889C268.72 63.5552 269.142 62.7102 269.776 62.0766C270.199 61.4429 270.832 61.0204 271.255 60.5979C271.466 60.3867 271.677 59.9643 272.1 59.9643C272.311 59.9643 272.522 59.753 272.733 59.3306C273.156 58.6969 273.367 57.852 273.578 57.007C273.789 56.1621 273.578 55.106 273.578 54.261C273.578 54.0498 274.001 53.6273 274.212 53.2049C274.212 52.7824 274.212 52.36 274.423 52.1487C274.634 51.7263 275.057 51.7263 275.69 51.9375C276.113 51.9375 276.324 51.9375 276.747 51.9375C277.38 51.9375 278.437 51.9375 278.859 51.3038C279.07 51.0926 279.281 50.6701 279.493 50.2477C279.704 49.8252 280.126 49.614 280.126 49.1915C280.126 48.3466 279.493 47.7129 279.281 47.0792C278.859 46.2343 279.07 45.3894 279.493 44.7557C279.704 44.3332 280.126 44.3332 280.338 44.122C280.549 43.9107 280.971 43.4883 281.182 43.2771C281.605 42.6434 282.027 42.0097 282.239 41.376C282.239 40.531 282.661 39.8974 283.295 39.2637C283.717 38.8412 283.928 38.8412 284.562 38.8412C284.985 38.8412 285.407 39.0525 285.83 39.0525C286.252 39.0525 286.463 38.4188 286.674 37.9963C286.674 37.5738 286.674 37.3626 286.674 36.9401C286.674 36.7289 286.674 36.5177 286.674 36.3064C286.674 36.0952 286.674 35.884 286.674 35.6728C286.674 35.4615 287.097 35.0391 287.308 34.8278C288.998 33.9829 288.364 37.9963 289.632 37.9963C289.632 37.9963 290.054 37.7851 290.265 37.7851C290.265 37.7851 290.265 37.3626 290.265 37.1514C290.265 36.7289 290.265 36.5177 290.054 36.0952C290.054 36.0952 290.054 35.4615 290.054 35.2503C290.054 35.0391 290.054 35.0391 290.054 34.8278C290.054 34.6166 290.054 34.6166 290.477 34.4054C290.477 34.4054 290.899 34.4054 291.11 34.4054C292.166 34.4054 292.589 33.9829 292.589 32.9267C292.589 32.2931 292.589 31.2369 293.223 30.8144C293.645 30.8144 294.068 30.8144 294.49 30.8144C294.912 30.8144 295.335 30.8145 295.546 30.6032C295.546 30.6032 295.757 29.9695 296.18 29.9695C296.391 29.9695 296.391 29.9695 296.602 29.9695C297.025 29.9695 297.236 30.392 297.447 30.6032C297.87 31.0257 298.292 31.6594 298.926 31.8706C299.137 31.8706 299.56 32.2931 299.982 32.2931C299.982 32.2931 300.404 32.2931 300.616 32.2931C300.827 32.2931 301.038 32.2931 301.249 32.2931C302.728 32.7155 305.052 32.9268 306.53 32.2931C306.53 32.7155 307.375 32.2931 307.586 32.2931C308.009 32.2931 308.431 32.2931 308.854 32.2931C309.276 32.2931 309.699 32.2931 310.121 32.0818C310.332 32.0818 310.332 32.0818 310.755 32.0818C310.966 32.0818 311.177 32.0818 311.6 32.0818C312.233 32.0818 312.656 32.0818 313.078 32.0818C313.29 32.0818 313.501 32.0818 313.923 32.0818C314.134 32.0818 314.346 32.0818 314.768 32.0818C315.191 32.0818 315.191 32.0818 315.613 32.0818C315.824 32.0818 316.036 31.8706 316.247 31.6594C316.669 31.6594 317.092 31.4482 317.303 31.2369C317.937 30.8145 318.57 29.9695 318.57 29.1246C318.57 28.7022 318.57 28.0685 318.781 27.4348C318.781 27.2235 318.781 27.0123 318.781 26.8011C318.781 26.5898 318.781 26.3786 318.781 26.1674C318.781 25.9561 318.781 25.7449 318.781 25.5337C318.781 25.3224 318.781 25.1112 318.781 24.6888C318.781 24.4775 318.781 24.2663 318.781 23.8439V23.4214C318.781 22.9989 318.781 22.9989 318.781 22.5765C318.781 22.3652 318.781 22.154 318.781 21.9428C318.781 21.7315 318.359 21.3091 318.148 21.0979C317.725 20.8866 317.092 21.0979 316.669 21.0979C316.247 21.0979 316.036 21.0979 315.824 21.0979C315.824 21.0979 315.613 21.0978 315.402 20.8866C314.768 20.8866 314.346 20.8866 313.712 20.8866C313.29 20.8866 312.867 20.8866 312.233 20.6754C311.6 20.6754 311.177 20.2529 310.544 20.2529C310.121 20.2529 309.487 20.2529 309.065 20.2529C308.642 20.2529 308.22 19.8305 307.586 19.8305C307.164 19.8305 306.953 19.6192 306.53 19.1968C305.896 18.5631 305.263 17.7182 305.263 16.8733C305.263 16.2396 305.263 15.8171 306.108 15.8171C306.319 15.8171 306.53 15.8171 306.741 15.8171H307.164C307.586 15.8171 308.009 15.8171 308.22 16.2396C308.642 16.4508 308.642 16.8732 308.854 17.2957C308.854 17.2957 308.854 17.7182 308.854 17.9294C308.854 17.9294 308.854 18.3519 308.854 18.5631C309.065 19.1968 309.487 18.7743 309.91 18.5631C310.755 18.3519 311.388 17.5069 312.233 17.0845C314.134 16.2395 315.402 18.5631 316.458 19.8305C316.88 20.2529 317.514 21.0979 318.148 21.0979C318.781 21.0979 318.781 20.8866 318.993 20.6754C319.204 20.6754 319.626 20.2529 319.838 20.0417C320.683 19.408 321.105 18.9855 322.161 19.1968C323.006 19.408 323.64 20.4641 323.851 21.3091C323.851 22.154 324.062 23.2102 324.696 23.6326C325.33 24.2663 326.386 24.4775 327.231 24.2663C328.076 24.0551 329.132 24.6888 329.765 25.1112C330.399 25.5337 330.61 25.9562 331.244 25.7449C331.667 25.7449 331.667 25.1112 331.667 24.6888C331.667 24.0551 332.934 23.2102 333.568 23.6326C334.413 24.0551 333.99 25.5337 335.046 25.7449C336.102 25.9562 335.891 25.3225 336.525 25.3225C336.947 25.3225 337.37 25.3225 337.792 25.7449C338.215 25.9562 338.426 26.5898 338.637 26.8011C338.848 27.0123 339.271 27.2235 339.693 27.4348C340.116 27.4348 340.538 27.646 341.172 27.8572C341.594 27.8572 342.017 28.2797 342.439 28.4909C342.862 28.4909 343.284 28.9134 343.707 29.1246C344.129 29.3359 344.552 29.7583 344.974 29.7583C344.974 29.7583 345.397 29.7583 345.608 29.7583C345.608 29.7583 346.03 29.7583 346.03 29.9695C346.453 29.9695 346.875 29.9695 347.298 29.7583C347.72 29.5471 347.72 29.1246 348.143 28.7021C348.354 28.4909 349.199 28.2797 349.621 28.4909C350.466 28.4909 351.1 29.3358 351.733 29.7583C352.578 30.1807 353.212 31.0257 353.846 31.4481C354.691 31.8706 355.324 32.2931 355.958 33.138C356.169 33.3492 356.592 33.7717 357.014 33.9829C357.225 33.9829 357.014 33.9829 357.437 33.9829C357.437 33.9829 357.859 33.9829 357.859 33.7717C358.282 33.5605 358.282 33.138 358.493 32.9267C358.493 32.5043 358.493 31.8706 358.704 31.6594C358.915 31.4482 359.338 31.0257 359.549 30.8144C359.76 30.8144 359.971 30.6032 360.394 30.6032C360.605 30.6032 360.816 30.6032 361.028 30.6032C361.45 30.1808 361.873 30.6032 362.295 30.6032C362.929 30.6032 362.929 30.1807 363.14 29.7583C363.14 29.3358 363.562 28.9134 363.774 28.4909C363.985 28.0685 364.407 27.4348 364.83 27.0123C365.252 26.3786 366.731 25.7449 367.364 26.3786C367.998 27.2235 367.365 28.0685 367.153 28.9134C366.942 29.7583 366.731 29.5471 366.52 29.9695C366.52 30.392 366.308 30.8145 366.097 31.2369C366.097 31.4482 366.097 31.6594 366.097 31.8706C366.097 32.0818 366.097 32.2931 366.097 32.5043C366.097 32.5043 366.097 32.5043 366.097 32.9267C366.097 33.3492 366.097 33.3492 366.097 33.5604C366.097 35.0391 367.153 33.138 367.364 32.5043C367.787 31.8706 368.209 31.2369 369.054 31.0257C370.322 30.8145 370.111 31.8706 370.111 32.7155C370.111 33.5605 369.899 34.6166 370.533 35.4615C370.744 35.6728 371.167 36.0952 371.589 36.0952C372.012 36.0952 372.434 36.0952 372.856 36.0952C372.856 36.0952 373.068 36.0952 373.49 36.0952C373.49 36.0952 373.913 36.0952 374.124 36.0952C374.335 36.0952 374.758 35.884 374.969 35.6728C375.602 35.0391 375.602 34.1942 375.602 33.3492C375.602 32.5043 375.18 31.8706 374.546 31.4481C373.913 30.8144 373.49 30.392 373.913 29.5471C374.335 28.9134 374.546 28.0685 375.391 28.2797C376.025 28.2797 376.87 28.9134 377.504 29.3358C378.137 29.9695 378.348 30.6032 378.771 31.0257C378.982 31.4481 379.405 31.8706 379.827 32.0818C380.038 32.0818 380.672 32.5043 380.883 32.5043C381.094 32.5043 381.728 31.8706 381.939 31.6594C382.151 31.6594 382.362 31.2369 382.573 31.0257C382.784 31.2369 383.207 31.0257 383.418 31.0257C383.629 31.0257 383.84 31.4482 384.052 31.6594C384.052 32.2931 384.052 32.7155 384.052 33.3492C383.84 33.7717 383.418 33.9829 383.207 34.4054C383.207 34.6166 382.996 34.8278 382.784 35.0391C382.784 35.2503 382.784 35.4615 382.784 35.884C382.784 36.3065 382.784 36.5177 382.573 36.9401C382.573 37.1514 382.573 37.5738 382.362 37.5738C381.939 37.9963 381.306 38.4188 380.883 38.63C379.827 39.2637 379.193 39.8974 378.771 40.9535C378.982 40.9535 379.193 41.5872 379.193 41.7985C379.405 42.2209 379.827 42.4321 379.827 43.0658C379.827 43.2771 379.827 43.4883 379.827 43.6995C379.827 43.6995 379.827 44.122 379.827 44.3332C379.827 44.7557 379.616 45.1781 379.405 45.3894C378.982 46.0231 378.771 46.6567 378.137 47.2904C377.926 47.5017 377.715 47.7129 377.504 47.9241C377.081 48.1354 376.87 48.3466 376.447 48.5578C375.814 48.1354 376.447 46.868 376.236 46.4455C376.236 46.2343 376.025 45.8118 375.814 45.6006C375.814 45.3893 375.391 45.1781 375.18 45.1781C374.969 45.1781 374.546 45.6006 374.335 45.8118C373.913 46.023 373.701 46.2343 373.279 46.6567C373.279 46.6567 372.645 47.0792 372.645 47.2904C372.645 47.5017 372.645 47.9241 372.434 48.1354C372.434 48.3466 372.434 48.7691 372.223 49.1915C372.012 49.614 371.8 49.8252 371.8 50.0364C371.378 50.8813 370.533 51.3038 369.899 51.9375C369.477 52.36 368.632 53.2049 369.054 54.0498C369.266 54.4723 370.111 54.8947 370.533 54.6835C370.955 55.3172 371.8 55.7397 372.012 56.5846C372.012 57.007 372.012 57.2183 371.8 57.6407C371.8 58.0632 371.8 58.2744 371.8 58.6969C371.8 59.5418 371.378 60.3867 370.955 61.2317C370.533 61.8653 369.899 62.499 369.477 63.1327C368.843 63.7664 368.209 64.4001 367.787 65.0338C367.576 65.4563 367.153 65.6675 366.942 65.8787C366.52 66.3012 366.308 66.7236 365.886 66.9349C365.252 67.3573 364.618 68.2023 363.985 68.6247C363.562 69.0472 363.351 69.8921 363.14 70.5258C363.14 70.9482 363.14 71.1595 363.14 71.5819C363.14 72.0044 363.14 72.2156 362.929 72.6381C362.929 73.2718 363.351 73.9055 363.774 74.5392C364.196 75.1729 364.83 75.5953 365.463 76.229C365.886 76.4402 366.097 76.8627 366.308 77.0739C366.52 77.0739 366.731 77.4964 366.942 77.7076C368.209 78.7638 369.688 79.3975 371.167 80.4536C372.223 81.0873 373.279 81.9322 374.546 82.7772C375.18 83.1996 375.814 83.6221 376.236 84.0445C376.659 84.467 377.292 84.8895 377.715 85.3119C378.348 85.7344 378.771 86.3681 379.405 87.0018C380.038 87.6355 380.25 88.4804 380.461 89.3253C380.672 89.959 380.883 90.8039 381.517 91.2264C382.362 91.8601 382.784 91.8601 383.629 91.8601C384.474 91.8601 384.474 91.8601 384.897 91.8601C385.319 91.8601 385.53 91.6488 385.953 91.6488C386.375 91.6488 386.586 91.6488 387.009 91.6488C387.431 91.6488 387.431 91.6488 387.643 91.6488C387.643 91.6488 387.643 91.6488 388.065 91.8601C388.488 91.8601 388.276 91.8601 388.699 91.8601C388.699 91.8601 389.121 92.0713 389.121 92.2825C389.332 92.4937 389.755 92.705 389.966 93.1274C389.966 93.1274 390.6 93.5499 390.811 93.5499C391.234 93.5499 391.445 93.5499 391.867 93.5499C392.29 93.5499 392.712 93.9724 393.135 93.9724C393.557 93.9724 393.768 93.9724 394.191 94.1836C394.613 94.1836 395.036 94.3948 395.458 94.3948C395.881 94.3948 396.092 94.3948 396.514 94.6061C397.148 94.8173 397.993 95.2397 398.415 95.8734C398.838 96.5071 399.049 97.1408 399.471 97.7745C400.316 99.0419 401.161 100.309 402.218 101.577C403.274 102.633 404.752 103.266 406.231 103.689L405.597 103.478Z" fill="#0AAAA8"/>
<path d="M156.979 127.136C156.979 127.136 156.979 127.136 156.979 126.924C156.979 126.924 156.979 126.924 157.402 126.713C157.824 126.502 157.824 126.079 157.613 125.657C157.613 125.446 156.979 125.234 156.768 125.023C156.345 124.812 155.923 124.39 155.712 124.178C155.289 123.967 155.078 123.545 154.655 123.333C154.233 123.122 153.811 122.911 154.022 122.277C154.022 121.855 154.655 121.644 154.867 121.221C154.867 120.799 154.867 120.376 154.867 119.954C154.867 119.531 154.867 119.109 154.867 118.686C154.867 118.264 154.867 118.053 154.655 117.63C154.655 117.208 154.444 116.785 154.233 116.363C154.233 116.152 153.811 115.729 153.811 115.307C153.811 114.673 154.233 113.828 154.655 113.194C155.078 112.561 155.5 111.716 156.134 111.293C157.19 110.237 158.246 109.181 159.514 108.336C160.781 107.491 162.471 107.069 163.527 106.012C164.583 104.956 165.006 103.267 165.639 101.999C166.273 100.732 166.062 100.732 166.484 100.098C166.907 99.4643 167.752 99.2531 168.597 99.4643C169.019 99.4643 169.23 99.8868 169.23 100.309C169.23 100.732 169.23 100.943 169.23 101.154C169.23 101.577 169.23 102.844 169.23 103.266C169.23 103.478 169.653 103.689 169.864 103.9C169.864 104.111 169.864 104.534 169.864 104.956C169.864 105.168 169.864 105.59 170.287 105.801C170.287 106.012 170.498 106.224 170.709 106.435C171.131 107.069 171.554 107.491 171.976 108.125C172.399 108.758 172.399 109.603 172.821 110.237C173.244 110.871 173.666 111.716 173.877 112.349C174.089 112.983 174.511 113.617 174.722 114.25C174.722 114.884 175.356 115.518 175.99 115.94C176.201 115.94 176.623 116.363 176.835 116.363C177.257 116.363 177.257 116.363 177.468 115.94C177.468 115.518 177.468 115.307 177.468 114.884C177.468 114.462 177.468 114.25 177.468 113.828C177.468 113.406 177.468 112.983 177.468 112.772C177.468 112.349 177.257 112.138 177.257 111.716C177.257 111.082 177.046 110.026 177.468 109.392C177.68 109.181 177.891 109.181 178.313 109.181C178.313 109.181 178.525 109.181 178.736 109.181C178.736 109.181 178.947 109.181 179.158 109.181C180.003 109.181 182.115 107.914 181.27 107.069C180.848 106.646 180.637 106.646 180.214 106.435C179.792 106.435 180.003 106.224 179.792 105.801C179.792 105.59 179.581 105.168 179.369 104.956C179.369 104.956 178.947 104.534 178.736 104.534C178.313 103.9 177.468 103.478 177.046 102.844C176.412 102.21 175.567 101.788 175.99 100.732C176.201 100.098 177.046 100.098 177.468 99.6756C177.891 99.2531 178.102 98.8307 177.891 98.197C177.468 97.3521 176.412 97.1408 176.201 96.2959C176.201 96.0847 175.99 95.6622 175.99 95.2397C175.99 94.8173 176.201 94.8173 176.201 94.3948C178.736 93.7611 178.736 96.9296 180.426 97.9857C181.059 98.4082 181.482 98.197 181.904 97.9857C182.327 97.7745 182.327 97.1408 182.749 97.1408C183.383 97.1408 183.594 97.3521 184.016 97.7745C184.439 98.197 184.861 98.6194 185.495 98.6194C185.706 98.6194 185.918 98.6194 186.129 98.6194C186.34 98.6194 186.551 98.6194 186.763 98.6194C186.974 98.6194 187.396 98.6194 187.607 98.6194C188.03 98.6194 188.241 98.6195 188.452 98.8307C189.086 98.8307 189.508 99.0419 190.142 99.2531C190.565 99.2531 191.41 99.2531 191.832 99.2531C192.677 99.2531 193.944 98.4082 192.888 97.5633C192.043 96.9296 190.353 97.7745 189.931 96.7184C189.931 96.7184 190.142 95.8735 190.353 95.6622C190.353 95.2398 190.776 95.0285 190.987 94.8173C191.41 93.9724 192.255 93.3387 192.255 92.4938C192.255 91.4376 191.621 91.0151 190.776 90.8039C189.931 90.5927 189.508 90.1702 189.508 89.1141C189.508 88.6916 189.72 88.4804 189.508 87.8467C189.508 87.4242 189.508 87.0018 189.508 86.5793C189.508 85.7344 189.508 84.6782 190.142 84.0445C190.565 83.4109 191.198 83.1996 191.832 82.7772C192.254 82.7772 192.466 82.7772 192.888 82.7772C193.099 82.7772 193.733 83.1996 193.944 83.1996C193.944 82.7771 193.944 82.3547 193.944 82.1434C193.944 81.721 194.156 81.5098 194.367 81.0873C194.578 80.6648 194.789 79.8199 195.634 79.8199C196.268 79.8199 196.479 80.8761 196.69 81.2985C196.69 81.9322 197.113 82.7772 197.535 83.4108C197.746 83.8333 198.591 84.2558 199.014 84.2558C199.436 84.2558 199.648 84.2558 199.859 84.0445C200.07 83.6221 199.859 83.6221 199.859 83.1996C199.859 82.5659 199.648 81.9322 199.225 81.0873C198.803 80.4536 198.591 79.8199 198.169 79.1862C198.38 79.1862 198.591 78.1301 198.803 77.7076C199.014 77.2852 199.436 77.0739 199.859 77.2851C200.07 77.2851 200.281 77.7076 200.704 77.7076C200.915 77.7076 201.337 77.7076 201.549 77.7076C201.971 77.7076 202.605 77.7076 202.816 78.1301C204.928 77.2852 203.45 74.9616 202.394 73.9055C202.182 73.6943 201.76 73.2718 201.549 73.0605C201.337 72.8493 200.915 72.6381 201.126 72.2156C201.337 71.3707 202.182 71.1595 202.816 70.737C203.238 70.3146 203.661 70.1033 204.083 69.6809C204.506 69.2584 204.928 68.6247 205.351 68.2023C205.773 67.7798 206.407 67.5686 206.829 67.3573C207.252 67.3573 207.674 66.9349 208.097 66.7236C208.942 66.3012 210.209 65.6675 210.632 66.7236C210.632 67.1461 210.632 67.5686 210.843 68.2023C210.843 68.6247 211.054 69.0472 211.476 69.0472C212.533 69.2584 212.955 68.6247 213.378 67.991C214.011 67.3573 214.222 66.7236 214.434 65.8787C214.434 64.8226 214.011 63.9776 214.434 63.1327C214.645 62.499 215.067 61.6541 215.49 61.2317C216.124 60.598 216.757 61.2317 217.18 61.8653C217.813 62.499 218.658 62.9215 219.292 62.0766C219.714 61.6541 219.714 61.0204 219.714 60.5979C219.714 60.1755 219.714 59.9643 219.926 59.5418C219.926 59.1193 220.982 57.6407 221.616 57.6407C222.46 57.6407 222.883 59.1194 222.883 59.753C222.883 60.1755 222.883 60.5979 222.883 61.0204C222.883 61.4429 222.883 61.8653 222.883 62.2878C222.883 62.9215 222.883 63.1327 223.517 63.344C223.939 63.344 224.361 63.1327 224.573 62.7103C224.573 62.499 224.784 62.0766 224.995 61.6541C224.995 61.2316 225.418 61.0204 225.418 60.5979C225.418 60.1755 225.418 59.5418 225.418 59.1193C225.418 58.6969 225.418 58.2744 225.418 57.8519C225.418 57.4295 225.418 57.2183 225.629 56.7958C225.629 56.3733 226.051 56.1621 226.263 55.7396C226.685 55.106 227.319 54.4723 228.164 54.6835C228.797 54.8947 229.22 55.9509 229.431 56.5846C229.853 57.2183 230.065 57.852 230.698 58.4856C231.121 58.9081 231.966 59.5418 232.388 59.5418C233.233 59.5418 234.078 59.753 234.712 60.3867C235.345 60.8092 235.768 61.4429 236.19 62.0766C236.613 62.499 237.035 63.1327 237.247 63.5552C237.669 63.9776 237.669 64.4001 237.88 64.8226C237.88 65.0338 238.303 65.245 238.303 65.4563C238.303 65.4563 238.303 65.8787 238.303 66.09C238.303 66.5124 238.725 66.9349 239.148 67.1461C239.781 67.7798 240.415 68.2023 241.049 68.6247C241.894 69.0472 242.739 69.2584 243.583 69.6809C244.428 70.1033 245.273 70.1033 246.118 70.3146C246.752 70.3146 246.963 70.737 246.963 71.1595C246.963 71.5819 246.963 71.5819 246.752 72.0044C246.752 72.0044 246.752 72.2156 246.752 72.4269C246.752 72.4269 246.752 72.4268 246.752 72.6381C246.752 72.6381 246.752 73.0606 246.752 73.2718C246.752 73.6942 246.329 73.9055 246.118 74.3279C245.696 74.9616 245.062 75.5953 245.062 76.4402C245.062 77.4964 245.062 80.6648 246.752 80.0311C247.386 80.0311 247.597 78.5526 247.808 78.1301C247.808 77.7076 247.808 77.2851 248.231 76.8627C248.231 76.4402 248.442 76.4402 248.864 76.0178C248.864 76.0178 249.287 76.0178 249.498 76.4402C249.709 76.4402 249.92 77.0739 250.343 76.8627C250.765 76.8627 251.188 75.8066 251.188 75.5953C251.188 75.3841 251.399 74.9616 251.61 74.7504C251.61 74.5392 251.61 74.1167 251.821 73.9055C251.821 73.2718 251.821 72.6381 252.455 72.2156C252.878 72.0044 253.089 72.2156 253.511 72.2156C253.723 72.2156 253.934 72.4268 254.356 72.6381C254.99 72.6381 255.624 72.8493 256.257 73.0605C256.469 73.0605 256.891 73.0606 257.102 73.2718C257.313 73.2718 257.736 73.6942 257.947 73.6942C258.37 73.6942 258.792 73.6942 259.215 73.6942H259.637V359.7C258.37 359.7 257.313 360.334 256.046 360.756C255.624 360.756 254.99 360.968 254.567 361.179C253.934 361.179 253.3 361.601 252.666 361.813C252.033 362.024 251.399 362.235 250.977 362.658C250.343 363.08 249.498 363.08 248.864 363.714C247.808 364.559 246.541 364.981 245.273 365.615C244.851 365.826 244.217 366.248 243.795 366.46C243.161 366.671 242.527 366.882 241.894 366.882C241.26 366.882 240.626 367.305 239.993 367.516C239.359 367.727 238.936 368.361 238.091 368.572C237.458 368.572 236.824 368.572 236.19 368.994C235.557 369.206 234.923 369.628 234.289 369.839C233.022 370.262 231.755 370.473 230.487 370.684C229.853 370.684 229.009 370.684 228.375 370.684C227.952 370.684 227.53 370.684 227.108 370.684C226.685 370.684 226.263 370.684 225.84 370.684C225.629 370.684 225.418 370.684 225.206 370.473C225.206 370.473 224.995 370.473 224.784 370.473C224.573 370.473 224.784 370.473 224.573 370.473C224.361 370.473 223.939 370.473 223.728 370.473C223.517 370.473 223.305 370.473 222.883 370.473C222.249 370.473 221.616 370.473 221.193 370.473C220.982 370.473 220.771 370.473 220.559 370.684C220.348 370.684 219.714 370.684 219.503 370.684C218.87 370.684 218.236 370.684 217.813 370.684C217.18 370.684 216.546 370.896 215.912 371.107C215.279 371.107 214.856 371.318 214.222 371.529C214.011 371.529 213.589 371.529 213.378 371.529C212.955 371.529 212.744 371.529 212.321 371.74C211.688 371.74 211.265 372.163 210.632 372.374C209.998 372.374 209.364 372.585 208.942 373.219C208.519 373.642 207.886 374.064 207.463 374.486C207.252 374.486 206.829 374.909 206.618 374.909C206.196 375.12 205.773 375.543 205.351 375.754C204.928 375.754 204.928 375.754 204.506 375.965C204.295 375.965 203.872 376.388 203.661 376.599C203.45 376.81 202.816 377.232 202.394 377.232C201.971 377.232 201.76 377.655 201.337 377.866C200.915 377.866 200.281 378.289 199.859 378.5C199.014 379.133 197.958 379.556 197.113 380.19C196.268 380.612 195.423 381.035 194.367 381.246C193.944 381.457 193.522 381.668 193.099 381.879C192.677 382.091 192.254 382.513 191.832 382.724C190.776 383.147 189.72 383.569 188.875 383.992C188.452 384.203 188.03 384.414 187.607 384.414C187.396 384.625 186.974 384.837 186.763 385.048C186.129 385.47 185.495 385.893 184.861 386.527C183.594 387.583 182.538 388.85 183.172 390.54C183.172 391.174 183.383 391.596 183.594 392.23C183.805 393.075 184.017 393.92 183.594 394.765C182.96 396.032 181.482 396.877 180.214 396.877C179.369 396.877 179.158 397.299 178.736 397.933C178.736 398.355 178.525 398.567 178.313 398.989C178.313 399.412 177.891 399.623 177.68 400.045C177.68 400.257 177.257 400.468 177.046 400.679C177.046 400.89 176.835 401.313 176.623 401.524C176.201 401.946 175.145 402.158 174.511 402.369C173.877 402.369 173.033 402.369 172.399 402.369C171.765 402.158 171.131 401.946 170.287 401.946C169.442 401.946 169.442 401.946 169.019 401.946C168.597 401.946 168.385 401.946 167.963 402.158C167.118 402.158 166.484 402.58 165.639 402.791C165.217 402.791 165.006 403.003 164.583 403.214C164.161 403.214 163.738 403.636 163.316 403.636C162.893 403.636 162.682 403.636 162.26 403.847C161.837 403.847 161.626 404.059 161.204 404.059C160.359 404.059 159.725 404.059 159.091 403.636C158.458 403.636 157.401 403.636 156.557 403.636C155.712 403.636 155.078 404.27 154.233 404.27C153.388 404.27 152.754 404.27 152.121 404.059C151.91 404.059 151.487 404.059 151.276 403.847C150.853 403.847 150.642 403.425 150.22 403.003C149.586 402.58 149.163 402.158 148.53 401.946C147.262 401.313 146.206 400.468 144.728 400.257C143.883 400.257 143.249 399.834 142.404 399.623C141.77 399.623 140.714 399.623 140.081 399.623C138.602 399.623 136.912 400.045 135.645 400.89C134.377 401.735 133.11 402.58 131.631 403.003C131.631 403.003 131.631 403.003 131.42 403.003C131.42 403.003 130.998 403.003 130.786 403.003C130.364 403.003 130.153 403.003 129.73 403.214C129.308 403.214 129.097 403.214 128.674 403.214C128.674 403.214 128.252 403.214 128.04 403.214C127.829 403.214 127.618 403.214 127.618 403.214C127.196 403.214 126.773 403.214 126.351 403.214C125.928 403.214 125.717 403.214 125.294 403.214C124.661 403.214 123.605 403.214 122.971 403.214C122.548 403.214 122.548 403.425 122.126 403.425C121.704 403.425 121.492 403.425 121.07 403.636C120.647 403.636 120.436 403.636 120.014 403.847C119.591 403.847 119.38 404.059 118.958 404.481C118.324 404.904 117.901 405.326 117.268 405.749C117.268 405.749 117.056 405.96 116.845 406.171C116.845 406.171 116.423 406.171 116.212 406.382C116 406.593 116 406.805 115.789 406.805C115.789 406.805 115.367 406.805 115.155 407.227C115.155 407.227 114.944 407.65 114.733 407.861C114.733 407.861 114.31 408.072 114.099 408.283C113.888 408.495 113.677 408.917 113.677 409.128C113.466 409.339 113.043 409.762 112.832 409.973V410.396C112.832 410.396 112.621 410.818 112.409 411.029C111.564 412.297 110.72 413.142 109.241 413.353C108.607 413.353 107.974 413.142 107.34 413.142C106.917 413.142 106.495 413.142 106.073 413.142C105.65 413.142 105.228 413.142 104.594 413.142C103.96 413.142 103.115 412.93 102.482 413.142C101.637 413.142 100.792 413.986 100.158 414.198C99.5244 414.62 98.8907 415.254 98.257 415.676C97.6233 416.099 97.2008 416.732 96.7784 417.155C96.5671 417.366 96.3559 417.789 96.1447 418.211C95.9334 418.422 95.511 418.634 95.2997 419.056C94.666 419.479 94.2436 420.112 93.8211 420.746C93.1874 421.38 92.5538 422.224 91.7088 422.647C91.0751 423.069 90.2302 423.492 89.3853 423.703C88.5404 423.703 87.9067 423.914 87.0618 423.914C86.2168 423.914 85.3719 424.337 84.7382 424.337C84.3158 424.337 83.8933 424.337 83.4708 424.548C83.0484 424.548 82.4147 424.548 81.9922 424.548C81.1473 424.548 80.3024 424.337 79.4575 424.126C79.4575 424.126 79.035 424.126 78.8238 424.126C78.8238 424.126 78.4013 424.126 78.1901 424.126C77.7676 424.126 77.5564 424.126 77.1339 423.914C76.7115 423.914 76.289 423.703 75.8665 423.492C75.4441 423.492 74.8104 423.492 74.3879 423.492C73.7542 423.492 72.9093 423.492 72.2756 423.492C71.8532 423.492 71.6419 423.492 71.2195 423.492C70.797 423.492 70.3745 423.492 69.9521 423.492C69.1072 423.492 68.4735 423.492 67.6286 423.492C66.7836 423.492 65.9387 423.281 65.0938 423.069C64.6713 423.069 64.4601 422.858 64.0376 422.647C63.6152 422.647 63.404 422.647 62.9815 422.436C62.559 422.224 62.1366 422.013 61.7141 421.802C61.2916 421.591 61.0804 421.168 60.658 420.957C60.0243 420.535 59.3906 419.901 58.7569 419.478C58.3344 419.056 57.7007 418.634 57.2783 418.211C56.4333 417.155 56.2221 415.465 55.166 414.409C54.7435 413.775 54.321 413.353 53.8986 412.719C53.4761 412.085 52.8424 411.874 52.2087 411.452C51.5751 411.029 50.7301 410.818 50.0964 410.607C49.674 410.607 49.2515 410.396 48.829 410.184C48.4066 410.184 47.9841 410.184 47.5617 410.184C46.928 410.184 46.2943 409.762 45.4494 409.551C44.6044 409.339 43.9707 408.917 43.3371 408.495C42.9146 408.072 42.4921 407.438 42.4921 406.805C42.4921 406.171 42.4921 405.115 42.4921 404.481C42.7034 403.636 42.4921 402.791 42.9146 401.946C43.1258 401.102 43.5483 399.834 43.5483 398.989C43.5483 398.355 43.5483 397.511 43.5483 396.877C43.5483 396.032 43.1258 395.398 43.5483 394.553C43.9707 394.553 44.182 395.398 44.3932 395.821C44.8157 396.243 45.0269 396.666 45.6606 397.088C46.2943 397.511 46.7168 397.511 47.3504 397.722C47.9841 397.722 48.8291 397.722 49.4627 397.088C50.5189 396.454 50.9414 395.187 51.3638 393.92C51.3638 393.286 51.7863 392.652 51.7863 392.019C51.7863 391.807 51.7863 391.385 51.7863 391.174C51.7863 390.751 51.9975 390.329 52.2087 389.906C52.2087 389.273 52.2087 388.428 52.2087 387.794C52.2087 387.16 51.9975 386.527 51.7863 385.893C51.7863 384.625 51.3638 383.147 51.7863 381.879C52.2087 380.401 53.6874 379.767 54.3211 378.5C54.5323 378.077 54.9547 377.655 54.9547 377.232C54.9547 376.599 54.9547 375.754 54.9547 375.12C54.9547 374.486 54.7435 373.642 54.5323 373.219C54.5323 372.797 54.3211 372.797 54.3211 372.374C54.3211 371.952 54.3211 371.74 54.3211 371.318C54.3211 370.684 54.7435 369.839 54.9547 369.206C55.166 368.572 54.9547 368.572 54.9547 368.15C54.9547 367.727 54.9547 367.516 54.9547 367.093C54.9547 366.671 54.9547 366.671 54.9547 366.248C54.9547 365.826 54.9547 365.615 54.7435 365.192C54.7435 364.77 54.321 364.136 53.8986 363.714C53.6873 363.08 53.4761 362.446 53.2649 361.813C53.0537 361.179 52.42 360.545 51.9975 359.912C51.3638 358.644 50.9414 357.377 50.3077 356.321C49.8852 355.687 49.4627 355.053 49.2515 354.42C49.0403 353.786 48.8291 352.941 48.6178 352.307C48.4066 351.674 47.9841 351.04 47.5617 350.617C47.1392 349.984 46.928 349.35 46.7167 348.716C46.7167 348.294 46.7167 348.083 46.5055 347.66C46.5055 347.238 46.2943 347.238 46.0831 347.026C45.6606 346.393 45.4494 345.97 45.2381 345.337C44.8157 344.069 44.182 342.591 44.182 341.323C44.182 340.901 44.182 340.478 43.9708 340.056C43.9708 339.633 43.9708 339.211 43.9708 339C43.9708 338.155 43.9708 337.31 43.9708 336.676C43.9708 336.042 43.5483 335.409 43.3371 334.775C43.3371 334.141 42.9146 333.508 42.7034 332.874C42.7034 332.663 42.7034 332.24 42.4921 331.818C42.4921 331.818 42.4921 331.818 42.4921 331.607C42.4921 331.184 42.4921 330.55 42.2809 329.917C42.2809 329.494 42.2809 329.072 42.0697 328.649C42.0697 328.227 42.0697 327.804 41.8585 327.382C41.8585 327.171 41.8585 326.96 41.8585 326.748C41.8585 326.537 41.8585 326.326 41.8585 326.115C41.8585 325.692 41.8585 325.481 41.8585 325.059C41.8585 324.425 41.436 323.58 41.436 322.946C41.436 322.524 41.436 322.312 41.436 321.89C41.436 321.468 41.436 321.256 41.436 320.834C41.436 320.411 41.0135 319.989 41.0135 319.567C41.0135 319.144 40.8023 318.722 40.5911 318.51C40.5911 317.665 40.3798 317.032 40.1686 316.187C39.9574 315.342 39.5349 314.708 39.1125 314.074C38.2675 312.596 37.0002 311.328 36.3665 309.639C35.944 309.005 35.5215 308.16 34.8878 307.526C34.8878 307.315 34.4654 307.315 34.2542 307.104C34.2542 307.104 34.2542 306.893 34.0429 306.681C34.0429 306.681 33.6205 306.681 33.6205 306.259C33.6205 306.259 33.4092 305.837 33.198 305.837C32.1419 304.358 31.0857 302.879 30.6632 301.189C30.6632 300.345 30.2408 299.5 30.0296 298.866C30.0296 298.443 30.0295 298.021 29.8183 297.599C29.8183 297.176 29.3959 296.754 29.3959 296.331C29.3959 295.275 28.9734 294.43 28.7622 293.374C28.5509 292.318 28.3397 291.262 28.1285 290.205C28.1285 289.149 27.4948 288.304 27.2836 287.248C27.2836 286.826 27.0723 286.403 26.8611 285.981C26.8611 285.558 26.6499 284.925 26.4386 284.502C26.2274 283.657 25.8049 282.812 25.3825 281.756C24.96 280.7 24.3263 280.066 23.6926 279.221C23.2702 278.799 23.059 278.165 22.8477 277.532C22.6365 276.898 22.4253 276.687 22.214 276.264C21.7916 275.419 21.1579 274.786 20.5242 273.941C19.8905 272.885 19.468 271.828 18.6231 270.983C17.9894 270.139 17.3557 269.505 16.9333 268.449C16.9333 268.026 16.5108 267.815 16.2996 267.604C16.0884 267.393 16.0883 267.181 15.8771 266.759C15.6659 266.336 15.2434 265.914 15.0322 265.491C14.3985 264.858 13.976 263.802 13.3424 262.957C12.9199 262.112 12.075 261.056 11.8637 260.211C11.4413 259.155 11.2301 258.098 11.0188 257.254C11.0188 256.62 9.32898 252.184 11.23 253.24C11.8637 253.663 12.7087 254.085 13.1311 254.719C13.7648 255.564 14.1873 256.409 14.821 257.254C15.4547 258.31 16.5108 258.943 16.9333 260.211C17.3557 261.056 17.7782 262.112 18.2006 262.957C18.6231 263.802 19.0456 264.435 19.468 265.28C19.8905 266.125 20.1017 266.759 20.5242 267.604C20.9466 268.237 21.1579 269.082 21.7916 269.716C22.214 270.139 22.6365 270.772 23.2702 270.983C24.1151 271.617 24.3263 270.561 24.3263 269.927C24.3263 269.294 24.3263 268.871 24.1151 268.237C23.6926 267.393 23.2702 266.759 22.6365 266.125C22.214 265.491 22.0028 264.647 21.5803 264.013C21.3691 263.59 21.1579 263.59 20.9466 263.168C20.9466 262.957 20.7354 262.745 20.5242 262.534C20.1017 262.112 19.8905 261.689 19.6793 261.267C19.468 260.844 19.468 260.422 19.0456 259.999C19.0456 259.788 18.6231 259.577 18.6231 259.366C18.6231 259.366 18.6231 258.943 18.6231 258.732C18.4119 257.676 17.9894 256.62 17.7782 255.564C17.7782 254.719 17.3557 254.085 17.3557 253.451C17.3557 252.818 17.3557 251.55 18.2006 251.762C18.8343 251.762 19.2568 252.606 19.6793 253.029C20.5242 254.296 20.9466 255.986 21.3691 257.465C21.5803 258.098 21.7916 258.943 22.0028 259.577C22.0028 260 22.4252 260.633 22.4252 261.267C22.4252 261.478 23.0589 263.379 23.4814 262.534C23.6926 262.112 23.2702 261.056 24.1151 260.844C24.3263 260.844 25.5937 261.901 25.8049 262.112C26.2274 262.534 26.4386 262.957 26.6499 263.379C26.6499 263.59 26.8611 264.013 27.0723 264.435C27.0723 264.858 27.0723 265.069 27.0723 265.491C27.0723 266.125 27.4948 266.97 28.1285 267.181C28.5509 267.181 28.7622 267.181 29.1846 267.181C29.6071 267.181 29.8183 267.181 30.2408 266.97C30.8745 266.759 31.2969 266.125 31.5082 265.491C31.9306 264.013 31.5082 262.534 31.5082 261.267C31.5082 260.633 31.5082 259.788 31.2969 259.155C31.2969 258.732 30.6632 258.098 30.452 257.676C30.0295 257.042 29.6071 256.62 29.1846 255.775C28.7622 255.352 28.5509 254.719 28.1285 254.296C27.706 253.874 27.2836 253.24 26.8611 252.818C26.4386 252.184 26.0162 251.55 25.8049 250.705C25.3825 249.227 25.1713 247.748 24.7488 246.27C24.7488 245.847 24.7488 245.636 24.7488 245.213C24.7488 244.791 24.7488 244.791 24.5376 244.368C24.1151 243.735 23.9039 243.101 23.6926 242.467C23.2702 240.989 22.4253 239.51 21.3691 238.454C20.5242 237.398 19.8905 236.13 19.468 234.863C19.468 234.441 19.468 234.229 19.2568 233.807C19.2568 233.807 19.2568 233.807 19.2568 233.596C19.2568 233.173 19.2568 232.751 19.2568 232.54C19.2568 232.117 19.2568 231.695 19.2568 231.272C19.2568 230.85 19.2568 230.427 19.2568 230.005C19.2568 229.582 19.2568 229.16 19.2568 228.737C19.2568 227.892 19.6793 227.048 19.8905 226.414C20.1017 225.569 20.7354 224.724 21.1579 224.09C21.5803 223.457 22.214 223.034 22.6365 222.612C23.059 222.189 23.4814 221.344 23.6926 220.711C23.9039 220.077 24.1151 219.232 24.3263 218.598C24.3263 218.176 24.5376 217.753 24.7488 217.331C24.7488 216.909 25.1713 216.697 25.1713 216.275C25.1713 215.852 25.1713 215.43 25.1713 215.007C25.1713 214.585 25.1713 214.163 25.1713 213.951C25.1713 213.74 25.1713 213.529 25.1713 213.318C25.1713 213.318 25.1713 212.895 25.1713 212.684C25.1713 212.261 25.1713 211.839 25.1713 211.628C25.1713 211.416 25.1713 210.783 25.1713 210.36C25.1713 210.36 25.1713 210.149 25.1713 209.938C25.1713 209.938 25.1713 209.515 25.1713 209.304C24.96 207.826 23.6926 206.347 23.4814 204.868C23.4814 204.023 23.4814 203.179 23.9039 202.334C24.1151 201.911 24.5376 201.489 24.7488 201.066C24.7488 201.066 25.1713 200.855 25.1713 200.644C25.1713 200.432 25.3825 200.221 25.5937 200.01C25.8049 199.588 26.0162 199.165 26.2274 198.743C26.4386 198.32 26.6499 198.109 27.0723 197.687C27.706 196.842 28.1285 195.997 28.3397 195.152C28.7622 194.307 28.9734 193.251 29.3959 192.195C29.6071 191.772 30.0296 191.35 30.2408 190.927C30.2408 190.716 30.6632 190.293 31.0857 190.505C31.5082 190.505 31.9306 191.35 32.1419 191.772C32.1419 192.195 32.1419 192.617 32.1419 192.828C31.9306 193.673 31.5082 194.518 31.0857 195.574C30.452 197.053 29.6071 198.531 30.452 199.799C30.452 200.01 30.6632 200.432 30.8745 200.644C30.8745 200.855 31.0857 201.277 31.2969 201.489C31.9306 202.122 32.9868 201.489 33.4092 201.066C34.0429 200.644 34.4654 200.01 35.0991 199.376C35.3103 198.954 35.5215 198.743 35.7328 198.32C35.7328 197.898 36.1552 197.475 36.1552 197.264C36.1552 197.053 36.1552 196.842 36.1552 196.63C36.1552 196.63 36.1552 196.419 36.1552 196.208C36.1552 195.785 36.1552 195.363 36.1552 194.941C36.1552 194.096 36.5777 193.462 37.0001 192.828C37.4226 191.983 38.0563 191.561 38.9012 191.138C39.5349 190.716 40.3798 190.293 41.2248 190.082C41.8584 189.871 42.7034 189.66 43.3371 189.237C43.9707 188.815 44.6044 188.392 45.4494 187.97C46.2943 187.547 47.1392 186.914 47.9841 186.28C48.1954 186.28 48.4066 186.069 48.829 185.858C49.0403 185.858 49.2515 185.646 49.674 185.435C49.674 185.435 50.0964 185.013 50.3077 184.801C50.5189 184.801 50.7301 184.59 51.1526 184.379C52.2087 183.745 53.2649 182.9 54.3211 182.055C54.7435 181.844 54.9547 181.422 55.3772 181.211C55.5884 180.999 56.0109 180.788 56.2221 180.577C56.6446 180.154 57.2783 179.732 57.7007 179.521C57.912 179.309 58.3344 178.887 58.5457 178.676C58.7569 178.676 58.9681 178.253 59.3906 178.042C59.813 177.62 60.2355 177.197 60.658 176.986C61.2917 176.352 62.1366 175.93 62.9815 175.507C63.404 175.296 63.8264 174.662 64.2489 174.24C64.2489 174.24 64.4601 173.817 64.6713 173.606C64.6713 173.606 65.0938 173.606 65.305 173.395C65.305 173.395 65.7275 173.184 65.9387 172.973C65.9387 172.973 66.1499 172.973 66.1499 172.761C66.3612 172.55 66.5724 172.339 66.7836 172.128C67.2061 171.705 68.2622 170.86 68.8959 171.494C69.1072 171.705 69.1072 172.128 69.5296 172.339C69.7409 172.339 69.9521 172.55 70.3746 172.761C70.797 172.761 71.2195 172.761 71.6419 172.339C71.6419 172.339 72.0644 172.128 72.2756 172.128H72.6981C73.3318 171.916 74.1767 171.705 74.8104 171.705C75.4441 171.705 76.289 171.916 77.1339 172.128C77.1339 172.128 77.5564 172.128 77.7676 172.128C77.9789 172.128 77.9789 172.128 78.1901 172.128C78.6125 172.128 78.8238 172.128 79.2462 172.128C79.8799 172.128 80.9361 172.128 81.5698 172.128C81.9922 172.128 82.4147 172.128 82.8372 172.128C83.2596 172.128 83.6821 172.128 83.8933 171.916C84.7382 171.916 85.3719 171.283 86.2168 171.071C87.0618 170.86 87.6954 170.438 88.5404 170.015C89.3853 169.593 90.019 168.959 90.8639 168.748C91.2864 168.748 91.7088 168.537 92.1313 168.325C92.5537 168.325 92.9762 168.325 93.3987 168.114C93.8211 168.114 94.2436 168.114 94.6661 167.903C94.8773 167.903 95.0885 167.903 95.2997 167.692C95.2997 167.692 95.7222 167.692 95.9334 167.692C96.1447 167.692 96.3559 167.692 96.5671 167.692C96.5671 167.692 96.9896 167.692 97.2008 167.692C97.6233 167.692 98.0457 167.481 98.257 167.269C98.6794 167.269 99.1019 167.269 99.5243 167.058C99.9468 167.058 100.369 167.058 100.58 167.058C101.425 167.058 102.059 166.636 102.904 166.424C103.749 166.213 104.171 166.002 104.383 165.368C104.383 164.946 104.594 164.523 104.805 164.101C104.805 163.678 105.228 163.256 105.228 163.045C105.439 162.411 106.072 161.566 106.917 161.355C107.129 161.355 107.34 161.355 107.551 161.355C107.974 161.355 107.974 161.355 108.185 161.355C108.607 161.355 109.03 161.355 109.452 161.355C110.086 161.355 110.508 161.566 111.142 161.566C111.776 161.566 112.198 161.566 112.832 161.777C114.099 161.989 115.578 162.411 116.845 162.411C118.113 162.411 120.014 162.2 121.492 161.989C121.915 161.989 122.126 161.777 122.548 161.777C122.971 161.777 123.182 161.777 123.605 161.777C124.238 161.777 124.872 161.566 125.506 161.355C126.773 161.144 127.829 160.721 129.097 160.299C129.519 160.299 129.73 160.087 129.942 159.876C130.153 159.876 130.364 159.876 130.786 159.876C131.209 159.665 131.631 159.243 132.265 159.243C132.688 159.243 133.321 158.82 133.744 158.609C133.955 158.609 134.377 158.609 134.589 158.186C134.589 158.186 134.8 157.975 135.011 157.764C135.856 157.13 136.701 156.497 137.335 155.652C137.968 154.807 138.391 153.962 139.236 153.328C139.658 152.906 140.081 152.483 140.503 152.061C140.503 152.061 140.714 151.638 140.926 151.427C140.926 151.427 141.348 151.216 141.559 151.005C141.982 150.582 142.193 150.16 142.615 149.737C143.038 149.315 143.249 148.892 143.672 148.681C144.305 148.047 144.728 147.414 145.15 146.569C145.995 145.09 146.84 143.612 147.685 142.133C148.107 141.499 148.741 140.866 149.375 140.232C150.008 139.598 151.065 139.387 151.698 138.753C152.121 138.331 152.543 138.12 152.966 137.697C152.966 137.697 153.177 137.486 153.388 137.275C153.599 137.063 153.811 137.063 154.022 136.852C154.655 136.218 155.078 135.374 155.5 134.529C155.923 133.684 156.345 133.05 156.768 132.416C156.768 132.205 157.19 131.783 157.402 131.571C157.402 131.571 157.402 131.36 157.402 131.149L156.979 127.136Z" fill="#0AAAA8"/>
</g>
<defs>
<filter id="filter0_d_386_172" x="-1.04904e-05" y="-0.000105858" width="656.093" height="609.986" filterUnits="userSpaceOnUse" color-interpolation-filters="sRGB">
<feFlood flood-opacity="0" result="BackgroundImageFix"/>
<feColorMatrix in="SourceAlpha" type="matrix" values="0 0 0 0 0 0 0 0 0 0 0 0 0 0 0 0 0 0 127 0" result="hardAlpha"/>
<feOffset dy="2.74746"/>
<feGaussianBlur stdDeviation="5.16334"/>
<feComposite in2="hardAlpha" operator="out"/>
<feColorMatrix type="matrix" values="0 0 0 0 0 0 0 0 0 0 0 0 0 0 0 0 0 0 0.06 0"/>
<feBlend mode="normal" in2="BackgroundImageFix" result="effect1_dropShadow_386_172"/>
<feBlend mode="normal" in="SourceGraphic" in2="effect1_dropShadow_386_172" result="shape"/>
</filter>
</defs>
</svg>